<svg xmlns="http://www.w3.org/2000/svg" width="36" height="36" viewBox="0 0 36 36">
    <g>
        <path fill="none" d="M0 0H36V36H0z" transform="translate(-157) translate(157)"/>
        <path fill="#f20600" d="M20.25 18H6.75v4.5h13.5zm6.258-10.617L19.624.492A1.686 1.686 0 0 0 18.429 0H18v9h9v-.429a1.682 1.682 0 0 0-.492-1.188zM15.75 9.563V0H1.688A1.683 1.683 0 0 0 0 1.688v32.625A1.683 1.683 0 0 0 1.688 36h23.625A1.683 1.683 0 0 0 27 34.313V11.25h-9.562a1.692 1.692 0 0 1-1.688-1.687zM4.5 5.063a.562.562 0 0 1 .563-.563h5.625a.562.562 0 0 1 .563.563v1.125a.562.562 0 0 1-.562.563H5.063a.562.562 0 0 1-.563-.563zm0 4.5A.562.562 0 0 1 5.063 9h5.625a.562.562 0 0 1 .563.563v1.125a.562.562 0 0 1-.562.563H5.063a.562.562 0 0 1-.562-.562zm18 21.375a.562.562 0 0 1-.562.563h-5.625a.562.562 0 0 1-.562-.562v-1.126a.562.562 0 0 1 .563-.562h5.625a.562.562 0 0 1 .563.563zm0-14.062v6.75a1.125 1.125 0 0 1-1.125 1.125H5.625A1.125 1.125 0 0 1 4.5 23.625v-6.75a1.125 1.125 0 0 1 1.125-1.125h15.75a1.125 1.125 0 0 1 1.125 1.125z" transform="translate(-157) translate(161.7)"/>
    </g>
</svg>
