<svg xmlns="http://www.w3.org/2000/svg" id="Group_510" width="800" height="480" viewBox="0 0 800 480">
    <defs>
        <style>
            .cls-10,.cls-12,.cls-13,.cls-14,.cls-15,.cls-16{fill:none}.cls-2{fill:#e52c2c}.cls-3{fill:#666}.cls-4{fill:#ffbd00}.cls-5{fill:#0098ff}.cls-10,.cls-13{stroke-miterlimit:10}.cls-10,.cls-12{stroke:#e52c2c}.cls-13,.cls-14{stroke:#ffbd00}.cls-15,.cls-16{stroke:#0098ff}.cls-10,.cls-12,.cls-15,.cls-16{stroke-width:2px}.cls-12,.cls-14,.cls-16{stroke-linecap:round}.cls-12,.cls-14,.cls-15,.cls-16{stroke-linejoin:round}.cls-13,.cls-14{stroke-width:1.92px}
        </style>
    </defs>
    <path id="Base" fill="none" d="M0 0H800V480H0z"/>
    <g id="Group_478" transform="translate(1.816 -56.148)">
        <g id="Group_493">
            <g id="Group_489">
                <path id="Path_668" d="M355.706 114.416a42.438 42.438 0 0 1-8.344 12.264 32.234 32.234 0 0 0-2.968-2.856 29.3 29.3 0 0 0 7.588-10.613zm7.839 12.852a88.344 88.344 0 0 1 6.216 9.66l-3.443 1.82a30.356 30.356 0 0 0-1.456-2.748c-13.525 1.065-15.429 1.233-16.8 1.737a30.236 30.236 0 0 0-1.372-3.556c.924-.252 1.68-1.008 2.8-2.24a51.014 51.014 0 0 0 6.888-10.612l3.892 1.624a62.96 62.96 0 0 1-7.56 10.556l10.276-.673c-.9-1.4-1.82-2.855-2.689-4.088zm.533-14c1.2 3.92 3.752 7.868 7.2 9.968a17.242 17.242 0 0 0-2.521 3.36 24.759 24.759 0 0 1-7.251-9.885h-4.48v-3.443z" class="cls-2"/>
                <path id="Path_669" d="M396.95 134.52c0 1.9-.336 2.912-1.54 3.5-1.149.588-2.941.672-5.433.644a13.608 13.608 0 0 0-1.092-3.612c1.569.112 3.416.084 3.949.056.5 0 .7-.14.7-.616V117.44H373.99v-3.164h22.96zm-6.216-12.181H374.27v-2.911h16.464zm-11.788 11.536v2.017H375.7v-11.48h13.58v9.463zm0-6.607v3.752H386v-3.752z" class="cls-2"/>
                <path id="Path_670" d="M419.181 128.5a13.205 13.205 0 0 1-1.54 4.873 28.082 28.082 0 0 0 9.576 2.352 13.749 13.749 0 0 0-1.987 2.968 25.7 25.7 0 0 1-9.576-2.941 14.352 14.352 0 0 1-5.74 3 18.25 18.25 0 0 0-2.073-2.772 12.913 12.913 0 0 0 5.1-2.156 16.146 16.146 0 0 1-3.444-4.172l2.716-.84a11.525 11.525 0 0 0 2.6 2.884 9.1 9.1 0 0 0 1.035-3.193h-6.243v-8.175h6.439v-1.96h-7.028v-2.576c-.5 1.064-1.063 2.156-1.68 3.22v19.8h-3.164v-15.044a30.742 30.742 0 0 1-2.3 2.632 22.031 22.031 0 0 0-1.764-3.416 29.715 29.715 0 0 0 6.775-10.444l3.08 1.008c-.252.588-.5 1.176-.756 1.792h6.832v-2.549h3.3v2.549h7.42v3.024h-7.42v1.96h6.664v8.176zm-3.136-2.687v-2.773H412.6v2.772zm3.3-2.772v2.772h3.473v-2.773z" class="cls-2"/>
                <path id="Path_671" d="M444.522 114.052c-.168.224-.364.447-.561.672 2.521 2.38 6.72 4.34 11.088 5.235a13.844 13.844 0 0 0-2.379 3.165 25.174 25.174 0 0 1-5.1-2.044v1.736h-11.981V121a34.065 34.065 0 0 1-5.347 2.268 14.27 14.27 0 0 0-1.932-3.221c5.319-1.231 10.863-4.395 13.552-7.895zm-4.368 20.468h-6.244v2.24h-3.025v-12.32h9.269zm-6.244-7.2v4.284h3.135v-4.284zm11.62-7.476a23.025 23.025 0 0 1-3.668-3.053 31.916 31.916 0 0 1-4.229 3.053zm7.111 12.292c0 1.456-.223 2.3-1.231 2.8-.952.5-2.3.5-4.116.5a12.931 12.931 0 0 0-.84-3c1.036.028 2.183.028 2.519.028.364 0 .477-.112.477-.42v-4.648h-3.864v11.4h-3.277v-14.328h10.332z" class="cls-2"/>
            </g>
            <g id="Group_491">
                <g id="Group_490">
                    <path id="Path_672" d="M345.12 150.262c0-3.32 1.947-5.337 4.552-5.337a3.794 3.794 0 0 1 2.816 1.275l-.7.841a2.8 2.8 0 0 0-2.1-.981c-1.948 0-3.236 1.6-3.236 4.16 0 2.592 1.233 4.216 3.194 4.216a3.123 3.123 0 0 0 2.381-1.148l.714.812a3.968 3.968 0 0 1-3.152 1.471c-2.55 0-4.469-1.971-4.469-5.309z" class="cls-2"/>
                    <path id="Path_673" d="M353.811 151.623a4.383 4.383 0 0 1 .427-1.956 3.184 3.184 0 0 1 1.19-1.339 3.233 3.233 0 0 1 1.74-.472 3.119 3.119 0 0 1 2.443 1.046 4.023 4.023 0 0 1 .934 2.782v.089a4.4 4.4 0 0 1-.414 1.937 3.136 3.136 0 0 1-1.183 1.337 3.272 3.272 0 0 1-1.767.479 3.113 3.113 0 0 1-2.437-1.046 4 4 0 0 1-.933-2.769zm1.272.15a3.172 3.172 0 0 0 .57 1.976 1.934 1.934 0 0 0 3.059-.011 3.454 3.454 0 0 0 .568-2.115 3.161 3.161 0 0 0-.578-1.973 1.836 1.836 0 0 0-1.534-.755 1.815 1.815 0 0 0-1.511.745 3.431 3.431 0 0 0-.574 2.133z" class="cls-2"/>
                    <path id="Path_674" d="M363.307 147.993l.034.82a2.73 2.73 0 0 1 2.2-.957 2.115 2.115 0 0 1 2.112 1.189 2.808 2.808 0 0 1 .96-.861 2.838 2.838 0 0 1 1.4-.328q2.434 0 2.475 2.577v4.956h-1.265v-4.881a1.7 1.7 0 0 0-.362-1.186 1.6 1.6 0 0 0-1.217-.393 1.679 1.679 0 0 0-1.169.42 1.708 1.708 0 0 0-.54 1.132v4.908h-1.271v-4.847a1.411 1.411 0 0 0-1.579-1.613 1.691 1.691 0 0 0-1.7 1.06v5.4h-1.265v-7.4z" class="cls-2"/>
                    <path id="Path_675" d="M380.624 151.773a4.433 4.433 0 0 1-.773 2.721 2.478 2.478 0 0 1-2.092 1.032 2.711 2.711 0 0 1-2.119-.855v3.562h-1.264v-10.24h1.155l.061.82a2.6 2.6 0 0 1 2.147-.957 2.521 2.521 0 0 1 2.109 1 4.477 4.477 0 0 1 .776 2.8zm-1.265-.144a3.267 3.267 0 0 0-.533-1.975 1.717 1.717 0 0 0-1.463-.725 1.858 1.858 0 0 0-1.723 1.019v3.534a1.865 1.865 0 0 0 1.737 1.012 1.71 1.71 0 0 0 1.445-.722 3.565 3.565 0 0 0 .537-2.143z" class="cls-2"/>
                    <path id="Path_676" d="M386.678 155.389a2.639 2.639 0 0 1-.178-.779 2.823 2.823 0 0 1-2.105.916 2.61 2.61 0 0 1-1.795-.619 2 2 0 0 1-.7-1.569 2.093 2.093 0 0 1 .879-1.795 4.147 4.147 0 0 1 2.471-.638h1.231v-.581a1.424 1.424 0 0 0-.4-1.057 1.593 1.593 0 0 0-1.169-.393 1.846 1.846 0 0 0-1.135.342 1.007 1.007 0 0 0-.458.827h-1.269a1.748 1.748 0 0 1 .393-1.07 2.681 2.681 0 0 1 1.066-.816 3.583 3.583 0 0 1 1.48-.3 2.925 2.925 0 0 1 2 .639 2.3 2.3 0 0 1 .752 1.76v3.4a4.171 4.171 0 0 0 .26 1.62v.109zm-2.1-.964a2.22 2.22 0 0 0 1.128-.307 1.863 1.863 0 0 0 .773-.8V151.8h-.992q-2.324 0-2.324 1.361a1.148 1.148 0 0 0 .4.929 1.525 1.525 0 0 0 1.016.335z" class="cls-2"/>
                    <path id="Path_677" d="M390.877 147.993l.041.929a2.692 2.692 0 0 1 2.214-1.066q2.345 0 2.366 2.645v4.888h-1.265v-4.894a1.7 1.7 0 0 0-.366-1.183 1.462 1.462 0 0 0-1.117-.383 1.828 1.828 0 0 0-1.08.328 2.218 2.218 0 0 0-.725.862v5.27h-1.265v-7.4z" class="cls-2"/>
                    <path id="Path_678" d="M399.621 153.537l1.722-5.544h1.357l-2.974 8.538q-.69 1.845-2.194 1.845l-.239-.02-.472-.089v-1.025l.342.027a1.683 1.683 0 0 0 1-.26 1.887 1.887 0 0 0 .592-.95l.28-.752-2.639-7.314h1.381z" class="cls-2"/>
                    <path id="Path_679" d="M409.184 145.436l3.254 8.121 3.254-8.121h1.7v9.953h-1.312v-3.876l.123-4.183-3.268 8.059h-1.005l-3.261-8.039.13 4.163v3.876h-1.312v-9.953z" class="cls-2"/>
                    <path id="Path_680" d="M419.479 146.031a.757.757 0 0 1 .188-.52.708.708 0 0 1 .557-.212.719.719 0 0 1 .561.212.75.75 0 0 1 .191.52.722.722 0 0 1-.191.512.731.731 0 0 1-.561.206.719.719 0 0 1-.557-.206.729.729 0 0 1-.188-.512zm1.367 9.358h-1.264v-7.4h1.264z" class="cls-2"/>
                    <path id="Path_681" d="M427.053 153.427a.934.934 0 0 0-.386-.8 3.739 3.739 0 0 0-1.347-.488 6.4 6.4 0 0 1-1.524-.492 2.177 2.177 0 0 1-.834-.684 1.635 1.635 0 0 1-.27-.943 1.916 1.916 0 0 1 .769-1.538 3 3 0 0 1 1.965-.629 3.091 3.091 0 0 1 2.041.649 2.063 2.063 0 0 1 .783 1.661h-1.272a1.14 1.14 0 0 0-.441-.9 1.65 1.65 0 0 0-1.111-.376 1.727 1.727 0 0 0-1.08.3.944.944 0 0 0-.389.786.766.766 0 0 0 .362.69 4.481 4.481 0 0 0 1.309.445 6.713 6.713 0 0 1 1.535.506 2.223 2.223 0 0 1 .871.707 1.741 1.741 0 0 1 .284 1.008 1.89 1.89 0 0 1-.793 1.589 3.319 3.319 0 0 1-2.058.6 3.736 3.736 0 0 1-1.572-.315 2.575 2.575 0 0 1-1.07-.878 2.121 2.121 0 0 1-.386-1.22h1.261a1.307 1.307 0 0 0 .509 1.008 1.972 1.972 0 0 0 1.254.373 2.035 2.035 0 0 0 1.152-.291.893.893 0 0 0 .438-.768z" class="cls-2"/>
                    <path id="Path_682" d="M434.216 153.427a.934.934 0 0 0-.386-.8 3.755 3.755 0 0 0-1.347-.488 6.4 6.4 0 0 1-1.524-.492 2.177 2.177 0 0 1-.834-.684 1.627 1.627 0 0 1-.27-.943 1.916 1.916 0 0 1 .769-1.538 3 3 0 0 1 1.965-.629 3.09 3.09 0 0 1 2.04.649 2.063 2.063 0 0 1 .783 1.661h-1.271a1.14 1.14 0 0 0-.441-.9 1.65 1.65 0 0 0-1.111-.376 1.725 1.725 0 0 0-1.08.3.945.945 0 0 0-.39.786.766.766 0 0 0 .363.69 4.458 4.458 0 0 0 1.309.445 6.7 6.7 0 0 1 1.534.506 2.227 2.227 0 0 1 .872.707 1.741 1.741 0 0 1 .284 1.008 1.893 1.893 0 0 1-.793 1.589 3.321 3.321 0 0 1-2.058.6 3.732 3.732 0 0 1-1.572-.315 2.562 2.562 0 0 1-1.07-.878 2.121 2.121 0 0 1-.386-1.22h1.264a1.308 1.308 0 0 0 .51 1.008 1.969 1.969 0 0 0 1.254.373 2.04 2.04 0 0 0 1.152-.291.9.9 0 0 0 .434-.768z" class="cls-2"/>
                    <path id="Path_683" d="M437.037 146.031a.757.757 0 0 1 .188-.52.708.708 0 0 1 .557-.212.719.719 0 0 1 .561.212.75.75 0 0 1 .191.52.722.722 0 0 1-.191.512.731.731 0 0 1-.561.206.719.719 0 0 1-.557-.206.729.729 0 0 1-.188-.512zm1.367 9.358h-1.264v-7.4h1.26z" class="cls-2"/>
                    <path id="Path_684" d="M440.011 151.623a4.37 4.37 0 0 1 .428-1.956 3.175 3.175 0 0 1 1.189-1.339 3.233 3.233 0 0 1 1.74-.472 3.121 3.121 0 0 1 2.444 1.046 4.022 4.022 0 0 1 .933 2.782v.089a4.4 4.4 0 0 1-.414 1.937 3.141 3.141 0 0 1-1.182 1.337 3.278 3.278 0 0 1-1.768.479 3.113 3.113 0 0 1-2.437-1.046 4 4 0 0 1-.933-2.769zm1.272.15a3.166 3.166 0 0 0 .571 1.976 1.934 1.934 0 0 0 3.059-.011 3.46 3.46 0 0 0 .567-2.115 3.155 3.155 0 0 0-.578-1.973 1.836 1.836 0 0 0-1.534-.755 1.815 1.815 0 0 0-1.511.745 3.431 3.431 0 0 0-.574 2.133z" class="cls-2"/>
                    <path id="Path_685" d="M449.507 147.993l.041.929a2.7 2.7 0 0 1 2.215-1.066q2.344 0 2.365 2.645v4.888h-1.264v-4.894a1.705 1.705 0 0 0-.366-1.183 1.463 1.463 0 0 0-1.118-.383 1.831 1.831 0 0 0-1.08.328 2.224 2.224 0 0 0-.724.862v5.27h-1.265v-7.4z" class="cls-2"/>
                </g>
            </g>
            <g id="Group_492">
                <path id="Path_686" d="M307.48 180.116c-.649.234-1.315.432-1.981.666v5.042c0 .738-.162 1.08-.612 1.3a5.154 5.154 0 0 1-2.233.252 5.477 5.477 0 0 0-.4-1.243c.774.019 1.476.019 1.674.019.235 0 .324-.072.324-.343v-4.627c-.738.252-1.44.468-2.088.666l-.324-1.3c.666-.162 1.494-.414 2.412-.7V175.9h-2.214v-1.242h2.214v-3.584h1.248v3.584h1.981v1.242H305.5v3.547l1.818-.559zm5.995 5.815a12.536 12.536 0 0 0 1.693.109c.432 0 2.88 0 3.475-.018a3.854 3.854 0 0 0-.4 1.187h-3.133c-2.593 0-4.484-.485-5.654-3.006a8.044 8.044 0 0 1-2.156 3.297 6.438 6.438 0 0 0-.99-.81c1.6-1.261 2.4-3.277 2.683-5.942l1.242.144a15.288 15.288 0 0 1-.36 1.927 4.22 4.22 0 0 0 2.341 2.772V179.9h-4.394v-1.135h10.264v1.135h-4.61v2.106h3.724v1.1h-3.727zm3.619-8.444h-8.444v-5.834h8.444zm-1.278-4.825h-5.942v1.422h5.942zm0 2.358h-5.942v1.44h5.942z" class="cls-3"/>
                <path id="Path_687" d="M325.537 171.492a30.1 30.1 0 0 1-1.837 3.852v12.118h-1.314v-10.1a17.055 17.055 0 0 1-1.782 2.179 11.122 11.122 0 0 0-.757-1.315 20.167 20.167 0 0 0 4.429-7.13zm3.853 11.793a16.851 16.851 0 0 1-3.439 4.159 5.954 5.954 0 0 0-1.062-.828 12.59 12.59 0 0 0 3.222-3.728zm7.238-2.719v1.314H325v-1.314h2.755v-4.394h-2.323v-1.3h2.323v-3.619h1.3v3.619h3.511v-3.637h1.3v3.637h2.556v1.3h-2.556v4.394zm-7.58 0h3.511v-4.394h-3.511zm4.177 2.377a20.736 20.736 0 0 1 3.2 3.835l-1.134.738a20.107 20.107 0 0 0-3.115-3.979z" class="cls-3"/>
                <path id="Path_688" d="M354.542 183.483h-4.285v2.574c0 .685-.144 1.045-.72 1.225a10.431 10.431 0 0 1-2.9.2 4.081 4.081 0 0 0-.432-1.152c1.1.036 2.106.036 2.394.017.27-.017.361-.09.361-.323v-2.539h-6.825a14.985 14.985 0 0 1 2.953 2.215l-.954.882a15.5 15.5 0 0 0-2.971-2.341l.882-.756h-3.727v-1.1h10.642v-1.116c-3.691.108-7.293.18-9.886.216l-.053-1.044c1.782 0 4.141-.018 6.715-.054v-.99h-5.509v-4.88h5.509v-1.008h-6.9v-1.081h6.9v-1.35h1.3v1.35h6.788v1.081h-6.788v1.008h5.69v4.88h-2.089a14.633 14.633 0 0 1 3.223 1.746l-.792.756a12.179 12.179 0 0 0-1.027-.72l-1.782.054v1.152h4.285zm-13.054-6.968h4.249v-1.081h-4.249zm4.249 1.981v-1.117h-4.249v1.121zm1.3-3.062v1.081h4.375v-1.081zm4.375 1.945h-4.375v1.121h4.375zm-4.375 3.007l3.4-.054a13.393 13.393 0 0 0-1.369-.558l.433-.378h-2.467z" class="cls-3"/>
                <path id="Path_689" d="M362.85 184.6a16.689 16.689 0 0 1-5.528 2.322 4.877 4.877 0 0 0-.81-1.007 16.124 16.124 0 0 0 5.329-1.783zm9.4-2.5v1.135h-7.221v4.265h-1.314v-4.267H356.6V182.1h7.112v-1.35H358.3v-1.027h5.419v-1.3h-6.338v-1.08h3.889a7.645 7.645 0 0 0-.918-1.728l.954-.252h-4.645v-1.117h2.9a14.237 14.237 0 0 0-1.441-2.611l1.135-.4a11.045 11.045 0 0 1 1.53 2.647l-.9.36h2.2v-3.187h1.26v3.187h2.143v-3.187h1.278v3.187h2.179l-.721-.234a14.978 14.978 0 0 0 1.387-2.737l1.368.378c-.5.919-1.1 1.909-1.566 2.593h2.773v1.117h-4.682l1.171.323a19.663 19.663 0 0 1-1.243 1.657h4.123v1.08h-6.518v1.3h5.636v1.027h-5.636v1.35zm-10.6-6.733a7.221 7.221 0 0 1 .954 1.782l-.739.2h4.97l-.63-.2a14.151 14.151 0 0 0 1.062-1.782zm5.347 8.678c1.693.558 3.979 1.422 5.221 2l-.828.846c-1.188-.576-3.475-1.495-5.185-2.125z" class="cls-3"/>
                <path id="Path_690" d="M377.89 186.31v.972h-1.027v-5.258a5.785 5.785 0 0 1-.54.721 2.077 2.077 0 0 0-.288-.361 19.444 19.444 0 0 1-.972 5.006 4.5 4.5 0 0 0-1.008-.558c.918-2.431.972-5.888.972-8.355v-6.014h.018a35.453 35.453 0 0 0 6.3-1.062l.99.919a35.38 35.38 0 0 1-6.158 1.044v.864h6.356v3.709h-6.356v.54c0 .847-.018 1.8-.072 2.81a10.868 10.868 0 0 0 1.513-3.188l1.008.252a10.917 10.917 0 0 1-.5 1.351h1.638a11.816 11.816 0 0 0-.594-1.279l.9-.27a8.78 8.78 0 0 1 .774 1.549h1.927v.918H380.7v.99h1.873v.847H380.7v1.007h1.909v.865H380.7v1.008h2.179v.973zm-1.711-11.019v1.583h5.15v-1.583zm3.565 5.329h-1.854v.99h1.854zm0 1.837h-1.854v1.007h1.854zm0 1.872h-1.854v1.008h1.854zm6.572.7a12.624 12.624 0 0 1-2.953 2.484 4.324 4.324 0 0 0-.882-.828 9.243 9.243 0 0 0 2.7-2.269zm-.54-10.318c.09-.522.162-1.134.216-1.656h-2.9v-1.152h7.347v1.152h-3.08c-.126.558-.252 1.152-.378 1.656h2.827v9.189H383.6v-9.183zm2.863 1.063h-3.907v1.656h3.907zm0 2.664h-3.907v1.693h3.907zm0 2.7h-3.907v1.692h3.907zm-.27 3.295a14.419 14.419 0 0 1 2.3 2.251l-1.008.684a16.16 16.16 0 0 0-2.287-2.34z" class="cls-3"/>
                <path id="Path_691" d="M394.3 178.118v9.38h-1.314v-15.683h6.464v6.3zm0-5.222v1.512h3.871V172.9zm3.871 4.141V175.4H394.3v1.639zm-.09 7.922v1.081h-1.224v-6.321h6.7v5.24zm0-4.1v2.971h4.231v-2.971zm9.6 4.825c0 .883-.216 1.333-.792 1.567a11.791 11.791 0 0 1-3.223.234 6.471 6.471 0 0 0-.468-1.368c1.17.054 2.341.036 2.7.017.325 0 .433-.107.433-.45v-7.561h-5.276v-6.3h6.626zm-5.347-12.8v1.531h4v-1.531zm4 4.178V175.4h-4v1.657z" class="cls-3"/>
                <path id="Path_692" d="M426.169 182.042v1.243h-16.223v-1.243h1.819l-.342-9.506a29.713 29.713 0 0 0 3.33-1.387l.649 1.1c-.828.341-1.819.684-2.737.972l.072 2.107h2.413v1.152h-2.377l.072 2.2h2.377v1.153H412.9l.072 2.214h10.208c.036-.629.09-1.386.126-2.161h-2.341v-1.133h2.377c.036-.721.054-1.459.09-2.215h-2.376v-1.158h2.394c.018-.774.036-1.53.036-2.251h-2.592v-1.17h3.817c-.019 3.151-.108 7.418-.27 10.083zm-9.831 2.341a28.641 28.641 0 0 1-5.365 3.079 12.053 12.053 0 0 0-.793-1.008 20.8 20.8 0 0 0 5.006-2.881zm1.387-6.446a9.026 9.026 0 0 1-1.1 3.367 5.9 5.9 0 0 0-.936-.576 7 7 0 0 0 .99-2.971zm1.242-.954H416.1v-5.816h1.17v1.674h2.971v1.135h-2.971v1.924h2.359v.017h.486v4.736c0 .558-.108.792-.5.972a5.772 5.772 0 0 1-1.89.163 3.579 3.579 0 0 0-.343-.919 11.89 11.89 0 0 0 1.351.018c.2 0 .234-.072.234-.234zm1.548 6.536a43.577 43.577 0 0 1 5.24 2.881l-.882 1.008a41.161 41.161 0 0 0-5.1-2.971z" class="cls-3"/>
                <path id="Path_693" d="M431.6 178.153a10.456 10.456 0 0 1-3.1 2.3 5.86 5.86 0 0 0-.774-.882 9.122 9.122 0 0 0 3.439-2.359h-2.61v-3.1h3.045v-.912h-3.566v-1.027h3.566v-1.134h1.188v1.134h3.385v1.027h-3.385v.918h2.935v3.1h-2.935v.666l.5-.612a12.391 12.391 0 0 1 2.449 1.513l-.6.792a13.721 13.721 0 0 0-2.358-1.567v2.3H431.6zm5.005 7.707h7.49v1.152h-16.218v-1.152h2.952v-2.972h1.278v2.972h3.193v-3.926h-6.23v-1.116h13.882v1.116h-6.338v1.4h5.149v1.045h-5.149zm-6.95-9.543h1.945V175h-1.945zm3.137-1.317v1.315h1.782V175zm10.1-.828a9.531 9.531 0 0 1-1.892 3.549 9.476 9.476 0 0 0 3.223 1.819 4.572 4.572 0 0 0-.756 1.026 9.819 9.819 0 0 1-3.277-2.034 11.32 11.32 0 0 1-3.511 1.98 6.206 6.206 0 0 0-.774-.954 9.955 9.955 0 0 0 3.493-1.873 9.887 9.887 0 0 1-1.549-2.413 12.358 12.358 0 0 1-1.062 1.243 8.493 8.493 0 0 0-.9-.9 9.653 9.653 0 0 0 2.556-4.556l1.225.271a14.243 14.243 0 0 1-.63 1.728h5.005v1.116zm-2.719 2.737a7.5 7.5 0 0 0 1.44-2.737l-3.114.018a9.344 9.344 0 0 0 1.675 2.721z" class="cls-3"/>
                <path id="Path_694" d="M454.9 171.582c-.179.288-.378.54-.576.809a21.182 21.182 0 0 0 7.473 4.916 4.05 4.05 0 0 0-.919 1.206 28.332 28.332 0 0 1-2.917-1.6v1.224h-9.02v-.918a25.282 25.282 0 0 1-2.755 1.458 5.333 5.333 0 0 0-.972-1.17 18.659 18.659 0 0 0 8.516-6.5zm-6.9 8.713h11.1v7.1h-1.387v-.936h-8.354v1.008h-1.351zm1.351 1.189v3.727h8.354v-3.727zm8.57-4.591a20.788 20.788 0 0 1-4.375-3.547 20.08 20.08 0 0 1-4.123 3.547z" class="cls-3"/>
                <path id="Path_695" d="M469.321 185.9c0 .72-.144 1.116-.612 1.35a5.839 5.839 0 0 1-2.376.252 4.439 4.439 0 0 0-.4-1.279c.828.019 1.584.019 1.8 0 .252-.017.342-.09.342-.342v-4.429h-2.827a17.431 17.431 0 0 1-1.35 6.068 4.407 4.407 0 0 0-1.1-.648c1.243-2.521 1.333-6.086 1.333-8.733v-6.427h5.185zm-1.242-5.727v-3.024h-2.719v.99c0 .613-.018 1.315-.036 2.034zm-2.719-7.219v2.946h2.719v-2.95zm13.648 5.113a15.4 15.4 0 0 1-2.466 6.068 9.7 9.7 0 0 0 3.006 2.359 4.673 4.673 0 0 0-.864 1.026 10.942 10.942 0 0 1-2.917-2.431 10.5 10.5 0 0 1-2.719 2.3 4.621 4.621 0 0 0-.792-.99 9.862 9.862 0 0 0 2.755-2.287 19.213 19.213 0 0 1-2.395-5.041h-.45v8.429h-1.26v-15.739h7.6v3.457c0 .685-.162 1.027-.7 1.225a11.261 11.261 0 0 1-2.827.18 3.774 3.774 0 0 0-.432-1.134c1.1.017 2.035.017 2.3 0 .288 0 .36-.073.36-.288V173h-5.042v4.827H478l.234-.037zm-5.221 1.009a15.558 15.558 0 0 0 1.962 4.033 13.518 13.518 0 0 0 1.8-4.033z" class="cls-3"/>
                <path id="Path_696" d="M486.2 181.413a18.788 18.788 0 0 0 .972-2.9h-1.728v7.418c0 .685-.144 1.045-.594 1.278a7.034 7.034 0 0 1-2.251.2 4.9 4.9 0 0 0-.414-1.224c.774.018 1.476.018 1.71.018.216-.018.289-.073.289-.271v-5.779a14.461 14.461 0 0 1-2.629 4.43 7.1 7.1 0 0 0-.7-1.244 13.537 13.537 0 0 0 2.9-4.825h-2.718v-1.17h4.825a18.342 18.342 0 0 0-4-2.413l.828-.864c.558.234 1.17.522 1.747.828a12.662 12.662 0 0 0 1.89-1.782h-5.1v-1.171h6.05l.235-.054.864.54a13.469 13.469 0 0 1-2.935 3.062 10.266 10.266 0 0 1 1.512 1.08l-.684.774h1.332l.2-.072.81.288c-.09.306-.18.63-.27.954a11.917 11.917 0 0 0 3.223-1.387 10.221 10.221 0 0 1-1.855-2.2 14.362 14.362 0 0 1-1.3 1.278 8.636 8.636 0 0 0-1.1-.774 11.058 11.058 0 0 0 3.421-4.393l1.279.342a14.135 14.135 0 0 1-.829 1.549h5.978v1.134h-1.386a8.34 8.34 0 0 1-2.161 3.06 11.955 11.955 0 0 0 3.907 1.568 5.936 5.936 0 0 0-.846 1.152 12.928 12.928 0 0 1-4.087-1.909 14.089 14.089 0 0 1-3.925 1.837 4.976 4.976 0 0 0-.486-.7 15.584 15.584 0 0 1-1.063 2.808zm10.569-.325s-.018.36-.036.577c-.324 3.348-.666 4.716-1.188 5.239a1.626 1.626 0 0 1-1.116.468 19.039 19.039 0 0 1-2-.018 3.5 3.5 0 0 0-.36-1.242c.774.072 1.494.09 1.782.09a.763.763 0 0 0 .613-.18c.342-.343.612-1.351.882-3.817h-3.025a7.3 7.3 0 0 1-4.771 5.275 4.353 4.353 0 0 0-.793-1.026 6.177 6.177 0 0 0 4.178-4.249h-2.809v-1.117h3.1c.107-.576.18-1.171.233-1.783h1.351c-.054.612-.144 1.207-.252 1.783zm-6.229-7.022a7.974 7.974 0 0 0 2.034 2.323 6.762 6.762 0 0 0 1.746-2.323z" class="cls-3"/>
            </g>
        </g>
        <g id="Group_498">
            <g id="Group_494">
                <path id="Path_697" d="M124.513 405.415a42.413 42.413 0 0 1-8.344 12.263 32.228 32.228 0 0 0-2.968-2.855 29.294 29.294 0 0 0 7.588-10.613zm7.84 12.851a88.589 88.589 0 0 1 6.216 9.66l-3.444 1.821a30.1 30.1 0 0 0-1.456-2.747c-13.524 1.065-15.428 1.233-16.8 1.737a30.135 30.135 0 0 0-1.372-3.557c.924-.252 1.68-1.008 2.8-2.24a50.97 50.97 0 0 0 6.888-10.611l3.892 1.624a62.855 62.855 0 0 1-7.56 10.555l10.276-.672c-.9-1.4-1.82-2.855-2.688-4.088zm.532-14c1.2 3.92 3.752 7.869 7.2 9.969a17.261 17.261 0 0 0-2.52 3.359 24.751 24.751 0 0 1-7.252-9.884h-4.48v-3.444z" class="cls-4"/>
                <path id="Path_698" d="M165.757 425.518c0 1.9-.336 2.912-1.54 3.5-1.148.588-2.94.672-5.432.645a13.67 13.67 0 0 0-1.092-3.612c1.568.112 3.416.084 3.948.055.5 0 .7-.139.7-.615v-17.053H142.8v-3.164h22.96zm-6.216-12.18h-16.464v-2.912h16.464zm-11.788 11.536v2.017h-3.248v-11.48h13.58v9.463zm0-6.608v3.752h7.056v-3.752z" class="cls-4"/>
                <path id="Path_699" d="M180.065 419.863v7.112c0 1.2-.168 1.875-.952 2.295a6.387 6.387 0 0 1-3.08.449 9.256 9.256 0 0 0-.812-2.492c.756.027 1.54.027 1.792.027.28 0 .364-.084.364-.336v-7.055h-2.912V409.7h2.492c.084-.7.2-1.456.28-2.157H173.4v7.953c0 4.2-.28 10.191-2.016 13.916a10.96 10.96 0 0 0-2.352-1.708c1.456-3.416 1.54-8.372 1.54-12.181v-10.837h12.348v2.856h-2.52c-.224.757-.448 1.485-.672 2.157h3.276v10.164zm-3.052 1.651a20.338 20.338 0 0 1-1.932 5.908 14.515 14.515 0 0 0-2.24-1.232 14.467 14.467 0 0 0 1.708-5.18zm3.36-9.519h-3.36v1.705h3.36zm-3.36 5.544h3.36v-1.708h-3.36zm4.76 8.624a29.747 29.747 0 0 0-1.484-4.481l2.1-.756a26.078 26.078 0 0 1 1.624 4.4zm7.14-.168a19.429 19.429 0 0 1-5.152 3.779 23.829 23.829 0 0 0-2.072-2.016 14.719 14.719 0 0 0 4.62-3.359zm-1.428-16.548c.112-.644.2-1.316.252-1.96h-4.312v-2.8H195.3v2.8h-4.312c-.2.672-.392 1.344-.588 1.96h4.284v14.811h-10.5v-14.811zm4.284 2.436h-4.788v1.791h4.788zm0 4.059h-4.788v1.793h4.788zm0 4.089h-4.788v1.819h4.788zm.392 4.395a34.151 34.151 0 0 1 3.808 3.613l-2.492 1.68a30.705 30.705 0 0 0-3.7-3.781z" class="cls-4"/>
                <path id="Path_700" d="M207.113 425.266a28.2 28.2 0 0 1-7.308 4.116 17.5 17.5 0 0 0-2.436-2.323 21.2 21.2 0 0 0 6.692-3.024zm15.652-8.623h-24.7v-2.633h10.612a5.076 5.076 0 0 0-.476-.756l1.288-.391h-8.54v-8.4h19.012v8.4h-8.428a9.737 9.737 0 0 1 .7 1.147h10.528zm-10.556 7.111v3.137c0 1.428-.336 2.071-1.428 2.436a15.581 15.581 0 0 1-4.508.363 10.274 10.274 0 0 0-.924-2.547c1.148.056 2.632.056 3 .027.392-.027.532-.111.532-.42v-3h-7.252v-6.1h17.92v6.1zm-8.064-16.1h12.488v-1.149h-12.488zm0 3.136h12.488v-1.2h-12.488zm.672 10.7h11.368v-1.569h-11.368zm10.752 2.632a42.473 42.473 0 0 1 7.336 3.248l-2.324 2.044a47.437 47.437 0 0 0-7.168-3.5z" class="cls-4"/>
            </g>
            <g id="Group_495">
                <path id="Path_701" d="M45.417 468.143a20.32 20.32 0 0 1-3.169 6.086c.666 1.765 1.494 2.791 2.412 2.791.505 0 .72-.937.846-3.331a3.179 3.179 0 0 0 1.153.721c-.252 3.06-.738 3.942-2.107 3.942-1.386 0-2.466-1.1-3.295-2.952a16.05 16.05 0 0 1-3.709 2.988 7.646 7.646 0 0 0-.972-1.062A14.4 14.4 0 0 0 40.717 474a35.436 35.436 0 0 1-1.314-7.581h-6.212v2.34h4.591v.577c-.09 4.033-.2 5.545-.576 6.013a1.39 1.39 0 0 1-1.08.523 20.8 20.8 0 0 1-2.143 0 2.79 2.79 0 0 0-.378-1.261c.828.072 1.6.091 1.909.091.252 0 .432-.036.54-.2.252-.27.342-1.4.414-4.5h-3.277v.144c0 2.521-.27 6.14-1.891 8.481a5.3 5.3 0 0 0-1.116-.9c1.477-2.2 1.639-5.275 1.639-7.6V465.1h7.508c-.072-.99-.09-2-.108-3.024h1.386c0 1.044.018 2.052.072 3.024H46.5v1.315h-5.729a32.476 32.476 0 0 0 .99 6.248 17.8 17.8 0 0 0 2.305-4.862zm-3.117-6.014a17.22 17.22 0 0 1 3.222 2.053l-.828.918a18.4 18.4 0 0 0-3.187-2.16z" class="cls-3"/>
                <path id="Path_702" d="M64.331 472.249c-.324 3.709-.666 5.167-1.224 5.744a1.57 1.57 0 0 1-1.152.467 15.3 15.3 0 0 1-2.215-.017 2.9 2.9 0 0 0-.342-1.189 19.61 19.61 0 0 0 2.016.09.789.789 0 0 0 .631-.179c.377-.361.666-1.5.954-4.3H52.213a18.558 18.558 0 0 1-3.15 2.125 6.58 6.58 0 0 0-.721-1.117 18.74 18.74 0 0 0 7.58-7.491h-6.391v-1.187H53.1a12.748 12.748 0 0 0-1.386-2.611l1.134-.451a11.275 11.275 0 0 1 1.476 2.629l-.99.433h3.223a23.582 23.582 0 0 0 1.278-3.151l1.315.377c-.343.937-.721 1.874-1.153 2.774h3.691c-.18 1.061-.4 2.3-.612 3.24h2.071c-.18 1.045-.378 2.287-.577 3.241h1.819zm-15.161 5.365a6.482 6.482 0 0 0 2.089-3.709l1.135.36a7.233 7.233 0 0 1-2.179 4.033zm6.176-8.031a20.22 20.22 0 0 1-1.836 2.089h7.832c.126-.612.252-1.35.378-2.089zm-.666 4.7a11.848 11.848 0 0 1 .523 3.276l-1.189.162a11.075 11.075 0 0 0-.432-3.295zm2.719-7.906a23.625 23.625 0 0 1-1.242 2.053h3.673c.162-.594.306-1.332.432-2.053zm-.036 7.6a12.392 12.392 0 0 1 1.009 2.9l-1.117.289a13.06 13.06 0 0 0-.936-2.936zm2.917 2.358a10.38 10.38 0 0 0-1.332-2.448l.936-.342a9.929 9.929 0 0 1 1.369 2.359z" class="cls-3"/>
                <path id="Path_703" d="M79.558 467.063a12.362 12.362 0 0 1-3.583 3.439 23.729 23.729 0 0 0 6.968 1.909 5.889 5.889 0 0 0-.846 1.26 19.123 19.123 0 0 1-2.5-.505v5.294h-1.35v-.576h-7.115v.594h-1.3v-5.221c-.955.288-1.909.5-2.845.7a4.933 4.933 0 0 0-.649-1.17 26.9 26.9 0 0 0 7.077-2.25 13.2 13.2 0 0 1-2.359-2.072 16.188 16.188 0 0 1-2.809 1.747 4.137 4.137 0 0 0-.9-.955 12 12 0 0 0 5.113-4.033l1.441.253c-.253.359-.541.7-.829 1.062h5.348l.234-.054zm-11.163-.018h-1.314v-3.385h7.166c-.252-.468-.54-1.008-.81-1.441l1.3-.323a17.346 17.346 0 0 1 1.044 1.764h6.41v3.385h-1.355V464.9H68.395zm10.515 5.942a21.741 21.741 0 0 1-4.249-1.711 23.452 23.452 0 0 1-4.015 1.711zm-.666 3.745v-2.61h-7.112v2.61zM72 467.675a11.315 11.315 0 0 0 2.683 2.179 12.575 12.575 0 0 0 2.827-2.251h-5.442z" class="cls-3"/>
                <path id="Path_704" d="M97.815 466.7v7.04h-1.333v-.954h-9.363a10.185 10.185 0 0 1-2.593 5.744 4.918 4.918 0 0 0-1.026-.9c2.287-2.323 2.521-5.672 2.521-8.228v-5.456a60.053 60.053 0 0 0 10.155-1.855l1.1 1.009a66.217 66.217 0 0 1-9.921 1.836v1.764zm-1.333 4.826v-3.583h-9.129v1.457c0 .666-.018 1.368-.09 2.125z" class="cls-3"/>
                <path id="Path_705" d="M115.329 468.143a20.321 20.321 0 0 1-3.169 6.086c.666 1.765 1.494 2.791 2.412 2.791.505 0 .721-.937.847-3.331a3.167 3.167 0 0 0 1.152.721c-.252 3.06-.738 3.942-2.107 3.942-1.386 0-2.466-1.1-3.294-2.952a16.093 16.093 0 0 1-3.709 2.988 7.719 7.719 0 0 0-.973-1.062 14.4 14.4 0 0 0 4.141-3.33 35.436 35.436 0 0 1-1.314-7.581H103.1v2.34h4.591v.577c-.089 4.033-.2 5.545-.576 6.013a1.39 1.39 0 0 1-1.08.523 20.8 20.8 0 0 1-2.143 0 2.777 2.777 0 0 0-.378-1.261c.828.072 1.6.091 1.909.091.252 0 .432-.036.54-.2.252-.27.342-1.4.414-4.5H103.1v.144c0 2.521-.27 6.14-1.891 8.481a5.273 5.273 0 0 0-1.116-.9c1.477-2.2 1.639-5.275 1.639-7.6V465.1h7.508c-.072-.99-.09-2-.108-3.024h1.386c0 1.044.018 2.052.072 3.024h5.816v1.315h-5.726a32.555 32.555 0 0 0 .99 6.248 17.8 17.8 0 0 0 2.305-4.862zm-3.115-6.014a17.263 17.263 0 0 1 3.223 2.053l-.829.918a18.4 18.4 0 0 0-3.187-2.16z" class="cls-3"/>
                <path id="Path_706" d="M132.718 472.752a28.972 28.972 0 0 1-3.889 2.36 12.559 12.559 0 0 0 5.1 2.053 6.687 6.687 0 0 0-.828 1.187 11.386 11.386 0 0 1-8.463-6.481h-2.881v4.829l4.862-1.17c-.018.342-.054.882-.036 1.17-5.042 1.278-5.924 1.53-6.338 1.747l-.072.054a6.561 6.561 0 0 0-.612-1.315 1.431 1.431 0 0 0 .882-1.278v-4.033h-2.917v-1.206h3.151v-7.9h11.073v1.134h-9.722v1.549h9.182v1.1h-9.182v1.5h9.182v1.08h-9.182v1.549h11.469v1.206h-7.509a9.132 9.132 0 0 0 1.927 2.52 26.566 26.566 0 0 0 3.691-2.377z" class="cls-3"/>
                <path id="Path_707" d="M140.214 462.274c-.306.882-.63 1.872-.936 2.646h2.989v11.686h-5.006v1.423h-1.224V464.92h2.017a22.192 22.192 0 0 0 .72-2.917zm.829 3.852h-3.782v3.764h3.782zm0 9.274v-4.321h-3.782v4.321zm10.028-9.85c-.288 8.211-.522 10.984-1.242 11.866a1.787 1.787 0 0 1-1.422.72 19.112 19.112 0 0 1-2.665-.017 3.1 3.1 0 0 0-.45-1.315c1.17.108 2.251.108 2.665.108.36 0 .558-.036.738-.27.594-.63.864-3.367 1.1-10.533h-4.575a15.179 15.179 0 0 1-1.693 3.15 9.84 9.84 0 0 0-1.1-.756 18.286 18.286 0 0 0 2.755-6.536l1.278.307a25.379 25.379 0 0 1-.774 2.593h5.383zm-3.979 8.121a31.964 31.964 0 0 0-2.736-4.159l1.044-.612a35.369 35.369 0 0 1 2.827 4.069z" class="cls-3"/>
                <path id="Path_708" d="M160.582 470.052v8.448h-1.261v-1.783c-2.214.288-4.411.54-6.1.756l-.126-1.206c.5-.055 1.1-.108 1.711-.162v-6.05h-1.549v-1.116h15.733v1.116zm-3.925-2h-1.279v-5.42h11.6v5.42h-1.315v-4.429h-9zm2.664 2h-3.313v1.224h3.313zm0 2.233h-3.313v1.242h3.313zm-3.313 3.709c1.045-.126 2.179-.252 3.313-.4v-1.08h-3.313zm8.715-10.444h-7.274v-.882h7.274zm-7.256 1.909v-.882h7.256v.882zm11.037 4.015a10.114 10.114 0 0 1-2.593 4.178 9.753 9.753 0 0 0 3.493 1.62 5.293 5.293 0 0 0-.792 1.062 10.373 10.373 0 0 1-3.619-1.89 12.547 12.547 0 0 1-3.655 1.944 4.155 4.155 0 0 0-.72-1.044 11.227 11.227 0 0 0 3.475-1.728 10.56 10.56 0 0 1-2.107-3.278l.307-.089h-1.027v-1.081h6.176l.234-.036zm-5.347.775a8.513 8.513 0 0 0 1.818 2.611 8.235 8.235 0 0 0 1.891-2.611z" class="cls-3"/>
                <path id="Path_709" d="M176.308 462.472a32.1 32.1 0 0 1-1.746 3.943V478.5h-1.315v-9.9a22.464 22.464 0 0 1-1.513 1.981 10.829 10.829 0 0 0-.756-1.315 20.516 20.516 0 0 0 4.069-7.147zm11.092 14.062v1.3h-11.866v-1.3h5.329v-3.007h-4.249v-1.26h4.249V470.2h1.337v2.071h4.339v1.26H182.2v3.007zm-6.536-10.875h-3.871V464.4h3.871v-2.36h1.336v2.36h4.033v1.261H182.2v2.556h4.843v1.279H176.11v-1.279h4.753z" class="cls-3"/>
                <path id="Path_710" d="M196.447 476.209c-.432-.629-1.441-1.854-2.269-2.808v5.113h-1.314v-4.771a13.971 13.971 0 0 1-3.043 3.979 7.643 7.643 0 0 0-.648-1.261 13.578 13.578 0 0 0 3.277-4.176h-2.881v-1.206h3.295V469.6h-2.809v-6.734h6.9v6.734h-2.773v1.477h3.169v1.206h-2.881c.883.846 2.377 2.394 2.791 2.844zm-5.276-10.509h1.837v-1.729h-1.837zm0 2.791h1.837v-1.747h-1.837zm4.61-4.52h-1.747v1.729h1.747zm0 2.773h-1.747v1.747h1.747zm10.047 4.195c-1.242 4.411-4.484 6.572-8.372 7.6a3.95 3.95 0 0 0-.7-1.1 12.236 12.236 0 0 0 4.574-2.017 12.284 12.284 0 0 0-2.125-2.034 15.033 15.033 0 0 1-1.315.882 3.571 3.571 0 0 0-.846-.882 10.719 10.719 0 0 0 4.448-4.393l1.278.234a10.009 10.009 0 0 1-.864 1.422h2.827l.252-.054zm-.666-7.148a10.466 10.466 0 0 1-7.13 6.77 3.879 3.879 0 0 0-.721-.99 10.729 10.729 0 0 0 3.619-1.837 16.171 16.171 0 0 0-1.818-1.548 14.051 14.051 0 0 1-1.116.864 3.878 3.878 0 0 0-.9-.828 9.843 9.843 0 0 0 3.709-4.141l1.3.2a13.39 13.39 0 0 1-.666 1.206h2.629l.233-.054zm-4.52.793a7.575 7.575 0 0 1-.72.828 14.114 14.114 0 0 1 1.909 1.548 8.646 8.646 0 0 0 1.638-2.376zm.342 7.2a10.485 10.485 0 0 1-.882.882 14.467 14.467 0 0 1 2.179 1.944 8.166 8.166 0 0 0 1.872-2.826z" class="cls-3"/>
                <path id="Path_711" d="M211.975 462.49a30.077 30.077 0 0 1-1.333 3.565V478.5h-1.278v-9.9a17.518 17.518 0 0 1-1.494 2.215 9.1 9.1 0 0 0-.721-1.35 21.69 21.69 0 0 0 3.6-7.31zm11.525 10.785h-5.329v5.2h-1.333v-5.2h-5.167v-1.242h5.167v-2.719h-4.429v-1.261h4.429v-6.013h1.333v6.013h4.591v1.261h-4.591v2.719h5.329zm-8.624-5.708a31.637 31.637 0 0 0-2.3-3.925l1.062-.5a30.685 30.685 0 0 1 2.359 3.8zm7.328-4.123a33.455 33.455 0 0 1-2.053 4.105 8.5 8.5 0 0 0-1.134-.576 23.617 23.617 0 0 0 1.98-3.871z" class="cls-3"/>
            </g>
            <g id="Group_497">
                <g id="Group_496">
                    <path id="Path_712" d="M124.869 441.26c0-3.319 1.947-5.337 4.552-5.337a3.8 3.8 0 0 1 2.816 1.276l-.7.84a2.8 2.8 0 0 0-2.1-.981c-1.948 0-3.236 1.6-3.236 4.16 0 2.592 1.233 4.217 3.194 4.217a3.126 3.126 0 0 0 2.381-1.148l.714.812a3.968 3.968 0 0 1-3.152 1.471c-2.55 0-4.469-1.976-4.469-5.31z" class="cls-4"/>
                    <path id="Path_713" d="M133.56 442.621a4.379 4.379 0 0 1 .427-1.955 3.187 3.187 0 0 1 1.19-1.34 3.233 3.233 0 0 1 1.74-.472 3.119 3.119 0 0 1 2.443 1.046 4.025 4.025 0 0 1 .934 2.782v.089a4.4 4.4 0 0 1-.414 1.938 3.134 3.134 0 0 1-1.183 1.336 3.263 3.263 0 0 1-1.767.479 3.113 3.113 0 0 1-2.437-1.046 4 4 0 0 1-.933-2.769zm1.272.15a3.17 3.17 0 0 0 .57 1.976 1.935 1.935 0 0 0 3.059-.01 3.457 3.457 0 0 0 .568-2.116 3.158 3.158 0 0 0-.578-1.972 1.92 1.92 0 0 0-3.045-.011 3.435 3.435 0 0 0-.574 2.133z" class="cls-4"/>
                    <path id="Path_714" d="M143.056 438.991l.034.82a2.733 2.733 0 0 1 2.2-.957 2.114 2.114 0 0 1 2.112 1.189 2.808 2.808 0 0 1 .96-.861 2.838 2.838 0 0 1 1.4-.328q2.435 0 2.475 2.577v4.956h-1.265v-4.881a1.694 1.694 0 0 0-.362-1.185 1.593 1.593 0 0 0-1.217-.394 1.68 1.68 0 0 0-1.169.421 1.707 1.707 0 0 0-.54 1.131v4.908h-1.271v-4.846a1.412 1.412 0 0 0-1.579-1.614 1.692 1.692 0 0 0-1.7 1.06v5.4h-1.274v-7.4z" class="cls-4"/>
                    <path id="Path_715" d="M160.373 442.771a4.429 4.429 0 0 1-.773 2.721 2.476 2.476 0 0 1-2.092 1.032 2.708 2.708 0 0 1-2.119-.855v3.562h-1.264v-10.24h1.155l.061.82a2.608 2.608 0 0 1 2.147-.957 2.521 2.521 0 0 1 2.109 1.005 4.479 4.479 0 0 1 .776 2.8zm-1.265-.144a3.269 3.269 0 0 0-.533-1.975 1.719 1.719 0 0 0-1.463-.725 1.86 1.86 0 0 0-1.723 1.019v3.534a1.863 1.863 0 0 0 1.737 1.012 1.71 1.71 0 0 0 1.445-.721 3.567 3.567 0 0 0 .537-2.144z" class="cls-4"/>
                    <path id="Path_716" d="M166.427 446.387a2.654 2.654 0 0 1-.178-.779 2.819 2.819 0 0 1-2.1.916 2.614 2.614 0 0 1-1.795-.618 2 2 0 0 1-.7-1.57 2.09 2.09 0 0 1 .878-1.794A4.14 4.14 0 0 1 165 441.9h1.231v-.581a1.422 1.422 0 0 0-.4-1.056 1.589 1.589 0 0 0-1.169-.393 1.852 1.852 0 0 0-1.135.341 1.01 1.01 0 0 0-.458.827H161.8a1.743 1.743 0 0 1 .393-1.069 2.684 2.684 0 0 1 1.066-.817 3.6 3.6 0 0 1 1.48-.3 2.92 2.92 0 0 1 2 .64 2.3 2.3 0 0 1 .752 1.759v3.4a4.164 4.164 0 0 0 .26 1.62v.109zm-2.1-.964a2.22 2.22 0 0 0 1.128-.307 1.862 1.862 0 0 0 .773-.8V442.8h-.992q-2.323 0-2.324 1.361a1.147 1.147 0 0 0 .4.929 1.52 1.52 0 0 0 1.016.333z" class="cls-4"/>
                    <path id="Path_717" d="M170.626 438.991l.041.929a2.694 2.694 0 0 1 2.214-1.066q2.345 0 2.366 2.645v4.888h-1.265v-4.894a1.7 1.7 0 0 0-.366-1.183 1.466 1.466 0 0 0-1.117-.383 1.828 1.828 0 0 0-1.08.328 2.218 2.218 0 0 0-.725.862v5.27h-1.265v-7.4z" class="cls-4"/>
                    <path id="Path_718" d="M179.37 444.535l1.722-5.544h1.354l-2.974 8.538q-.69 1.845-2.194 1.845l-.239-.02-.472-.089v-1.025l.342.027a1.676 1.676 0 0 0 1-.26 1.878 1.878 0 0 0 .592-.95l.28-.752-2.639-7.314h1.381z" class="cls-4"/>
                    <path id="Path_719" d="M190.533 444.644l2.844-8.21h1.435l-3.691 9.953h-1.162l-3.685-9.953h1.426z" class="cls-4"/>
                    <path id="Path_720" d="M196.064 437.029a.759.759 0 0 1 .188-.52.711.711 0 0 1 .557-.212.723.723 0 0 1 .561.212.752.752 0 0 1 .191.52.722.722 0 0 1-.191.512.731.731 0 0 1-.561.206.719.719 0 0 1-.557-.206.728.728 0 0 1-.188-.512zm1.367 9.358h-1.264v-7.4h1.264z" class="cls-4"/>
                    <path id="Path_721" d="M203.638 444.425a.931.931 0 0 0-.386-.8 3.725 3.725 0 0 0-1.347-.489 6.4 6.4 0 0 1-1.524-.492 2.16 2.16 0 0 1-.834-.684 1.63 1.63 0 0 1-.27-.943 1.92 1.92 0 0 1 .769-1.538 3.005 3.005 0 0 1 1.965-.629 3.1 3.1 0 0 1 2.041.649 2.066 2.066 0 0 1 .783 1.662h-1.272a1.143 1.143 0 0 0-.441-.9 1.655 1.655 0 0 0-1.111-.376 1.733 1.733 0 0 0-1.08.3.947.947 0 0 0-.389.786.763.763 0 0 0 .362.69 4.422 4.422 0 0 0 1.309.445 6.813 6.813 0 0 1 1.535.506 2.225 2.225 0 0 1 .871.708 1.736 1.736 0 0 1 .284 1.007 1.892 1.892 0 0 1-.793 1.59 3.325 3.325 0 0 1-2.058.6 3.72 3.72 0 0 1-1.572-.315 2.551 2.551 0 0 1-1.07-.877 2.124 2.124 0 0 1-.386-1.221h1.265a1.311 1.311 0 0 0 .509 1.009 1.978 1.978 0 0 0 1.254.372 2.044 2.044 0 0 0 1.152-.29.894.894 0 0 0 .434-.77z" class="cls-4"/>
                    <path id="Path_722" d="M206.459 437.029a.759.759 0 0 1 .188-.52.711.711 0 0 1 .557-.212.723.723 0 0 1 .561.212.752.752 0 0 1 .191.52.722.722 0 0 1-.191.512.731.731 0 0 1-.561.206.719.719 0 0 1-.557-.206.728.728 0 0 1-.188-.512zm1.367 9.358h-1.264v-7.4h1.264z" class="cls-4"/>
                    <path id="Path_723" d="M209.434 442.621a4.366 4.366 0 0 1 .427-1.955 3.185 3.185 0 0 1 1.189-1.34 3.235 3.235 0 0 1 1.74-.472 3.121 3.121 0 0 1 2.444 1.046 4.024 4.024 0 0 1 .933 2.782v.089a4.4 4.4 0 0 1-.414 1.938 3.125 3.125 0 0 1-1.182 1.336 3.268 3.268 0 0 1-1.767.479 3.112 3.112 0 0 1-2.437-1.046 4 4 0 0 1-.933-2.769zm1.271.15a3.17 3.17 0 0 0 .571 1.976 1.935 1.935 0 0 0 3.059-.01 3.464 3.464 0 0 0 .567-2.116 3.158 3.158 0 0 0-.577-1.972 1.921 1.921 0 0 0-3.046-.011 3.441 3.441 0 0 0-.574 2.133z" class="cls-4"/>
                    <path id="Path_724" d="M218.93 438.991l.041.929a2.694 2.694 0 0 1 2.215-1.066q2.344 0 2.365 2.645v4.888h-1.265v-4.894a1.7 1.7 0 0 0-.366-1.183 1.464 1.464 0 0 0-1.117-.383 1.831 1.831 0 0 0-1.08.328 2.227 2.227 0 0 0-.725.862v5.27h-1.265v-7.4z" class="cls-4"/>
                </g>
            </g>
        </g>
        <g id="Group_502">
            <g id="Group_499">
                <path id="Path_725" d="M584.407 420c-.279-.783-.783-1.876-1.316-2.967v12.684H579.9v-10.3a24.072 24.072 0 0 1-2.436 5.292 18.4 18.4 0 0 0-1.6-3.36c1.708-2.184 3.191-6.1 4-9.464h-3.361V408.8h3.397v-5.236h3.192v5.208h2.8v3.108h-2.8v.9c.785 1.036 2.772 4.2 3.248 4.984zm17.724-1.9a25.4 25.4 0 0 1-4.2 5.208 48.635 48.635 0 0 1 4.62 4.031l-2.576 2.157a34.434 34.434 0 0 0-4.424-4.228 29.947 29.947 0 0 1-9.015 4.508 20.522 20.522 0 0 0-1.961-2.828c6.58-1.792 11.845-5.656 14.112-10.08zm-1.932-5.516a27.546 27.546 0 0 1-12.348 10.976 16.359 16.359 0 0 0-1.851-2.549 23.631 23.631 0 0 0 6.888-4.284c-4.2.308-5.124.476-5.712.728a20.65 20.65 0 0 0-.812-3.024 4.425 4.425 0 0 0 2.213-.924 41.762 41.762 0 0 0 2.38-3.584h-4.649V406.9h6.552a14.888 14.888 0 0 0-.98-2.632l3.136-.952a15.8 15.8 0 0 1 1.456 3.584h5.684v3.024h-7.7c-.84 1.344-1.765 2.856-2.632 4.144l3.723-.168a18.406 18.406 0 0 0 1.484-2.38z" class="cls-5"/>
                <path id="Path_726" d="M609.748 413.843a74.048 74.048 0 0 1-2.044 11.619l-3.361-1.343a54.829 54.829 0 0 0 2.157-10.892zm5.263-2.268v12.992c0 1.315.224 1.54 1.569 1.54h4c1.4 0 1.651-.9 1.847-5.264a10.167 10.167 0 0 0 3.136 1.4c-.392 5.32-1.288 6.971-4.731 6.971h-4.649c-3.64 0-4.647-1.119-4.647-4.647v-12.992zm-.252-7.533a50.845 50.845 0 0 1 7.756 5.8l-2.464 2.6a48.866 48.866 0 0 0-7.56-6.132zm12.208 8.289a52.082 52.082 0 0 1 3.613 10.416l-3.389 1.4a47.459 47.459 0 0 0-3.332-10.556z" class="cls-5"/>
                <path id="Path_727" d="M640.267 404.547a54.178 54.178 0 0 1-2.128 5.432v19.74h-3.164v-14a22.053 22.053 0 0 1-1.736 2.3 23.165 23.165 0 0 0-1.6-3.584 31.182 31.182 0 0 0 5.544-10.808zm12.544 21.053a52.632 52.632 0 0 1 5.908 2.352l-2.856 1.876a34.768 34.768 0 0 0-6.02-2.688l1.792-1.54h-5.488l1.853 1.318a21.551 21.551 0 0 1-7.113 2.857 12.16 12.16 0 0 0-1.763-2.269 24.587 24.587 0 0 0 5.935-1.9h-3.948v-10.447h15.849V425.6zm-.391-18.368v1.2h4.815v5.768h-16.548v-5.768h4.592v-1.2h-5.1v-2.408h17.892v2.408zm-8.849 5.04h1.708v-1.9h-1.708zm.616 5.8h9.521v-1.008h-9.521zm0 2.8h9.521v-1.008h-9.521zm0 2.856h9.521v-1.064h-9.521zm5.544-16.492h-1.819v1.2h1.819zm-1.819 5.04h1.819v-1.9h-1.819zm4.508-1.9v1.9h1.791v-1.9z" class="cls-5"/>
                <path id="Path_728" d="M668.939 404.687a44.974 44.974 0 0 1-2.687 6.1v18.928h-3.081v-13.968c-.5.644-1.036 1.288-1.54 1.876a21.059 21.059 0 0 0-1.736-3.472 30.056 30.056 0 0 0 6.048-10.472zm17.332 21.728v2.8h-18.844v-2.8h2.409V410.9h4.843c.113-.588.224-1.233.336-1.9h-6.355v-2.856h6.747c.084-.9.168-1.708.224-2.492l3.528.112c-.112.784-.28 1.568-.42 2.38h6.889V409h-7.477c-.168.7-.308 1.316-.476 1.9h6.468v15.512zm-13.5-13.077v1.54h8.288v-1.54zm8.288 3.837h-8.288v1.539h8.288zm-8.288 3.78v1.6h8.288v-1.6zm0 5.46h8.288v-1.568h-8.288z" class="cls-5"/>
            </g>
            <g id="Group_500">
                <path id="Path_729" d="M581.679 466.145h-5.761v-1.116h5.761zm-3.961 11.308v.846h-1.1v-6.032h4.591v5.186zm3.511-8.931h-4.592v-1.063h4.592zm-4.592 1.314h4.592v1.08h-4.592zm2.287-4.879a8.976 8.976 0 0 0-1.422-2.341l1.081-.5a10.849 10.849 0 0 1 1.494 2.25zm-1.206 8.409v2.988h2.376v-2.988zm14.224-4.9a23.2 23.2 0 0 1-2.286 5.943c.342 1.6.774 2.556 1.332 2.592.324 0 .558-1.044.684-2.808a3.673 3.673 0 0 0 .937.648c-.343 2.916-.991 3.672-1.639 3.655-.99-.036-1.675-1.008-2.161-2.7a13.173 13.173 0 0 1-2.322 2.629 3.9 3.9 0 0 0-.864-.7 12.925 12.925 0 0 0 2.826-3.439 61.116 61.116 0 0 1-.684-7.725H583.7v2.431h3.2v.557c-.09 4.268-.162 5.8-.54 6.267a1.108 1.108 0 0 1-.9.505 10.336 10.336 0 0 1-1.531.017 3.148 3.148 0 0 0-.306-1.224c.576.054 1.1.054 1.3.054.234 0 .36-.018.487-.2.179-.287.252-1.476.342-4.843H583.7c0 2.466-.235 6.014-1.585 8.409a4.282 4.282 0 0 0-.972-.828c1.206-2.234 1.332-5.367 1.332-7.634v-4.737h5.258c-.036-1.043-.054-2.142-.072-3.24h1.188c0 1.1.019 2.2.036 3.24h3.349v1.225h-3.295c.072 2.287.217 4.3.433 5.979a22.585 22.585 0 0 0 1.44-4.52zm-.612-3.654a10.588 10.588 0 0 0-1.836-2.125l.9-.5a10.639 10.639 0 0 1 1.872 2.035z" class="cls-3"/>
                <path id="Path_730" d="M597.3 468.629a36.146 36.146 0 0 1-1.585 7.059l-1.332-.559a28.2 28.2 0 0 0 1.617-6.752zm2.917-1.6v8.871c0 .829.216.991 1.243.991h3.44c1.116 0 1.278-.631 1.423-3.729a4.225 4.225 0 0 0 1.26.6c-.2 3.4-.612 4.394-2.611 4.394h-3.622c-1.944 0-2.484-.487-2.484-2.27v-8.857zm.378-4.358a32.9 32.9 0 0 1 4.843 3.979l-.954.99a33.8 33.8 0 0 0-4.772-4.087zm7.832 5.24a32.316 32.316 0 0 1 2.413 6.752l-1.314.522a32.439 32.439 0 0 0-2.341-6.789z" class="cls-3"/>
                <path id="Path_731" d="M617.5 466.505a15.508 15.508 0 0 1-1.441 2.2v9.777h-1.3v-8.246a17.668 17.668 0 0 1-2.07 1.98 8.623 8.623 0 0 0-.721-1.314 16.232 16.232 0 0 0 4.358-4.861zm-.217-3.924a17.63 17.63 0 0 1-4.358 4.285 6.647 6.647 0 0 0-.683-1.08 13.723 13.723 0 0 0 3.781-3.692zm4.771 1.8v-2.251h1.346v2.251h5.077v1.244H623.4v2.25h4.249v1.225H617.6v-1.224h4.447v-2.25h-5.167v-1.246zm6.447 7.941H626v4.592c0 .792-.18 1.152-.756 1.368a10.385 10.385 0 0 1-2.971.2 5.079 5.079 0 0 0-.45-1.261c1.116.036 2.142.036 2.448.019s.378-.09.378-.342v-4.574H617.1V471.1h7.544v-1.48H626v1.48h2.5zm-8.877.558a20.645 20.645 0 0 1 2.287 3.043l-1.153.684a21.419 21.419 0 0 0-2.232-3.133z" class="cls-3"/>
                <path id="Path_732" d="M643.452 467.063a12.363 12.363 0 0 1-3.583 3.439 23.729 23.729 0 0 0 6.968 1.909 5.94 5.94 0 0 0-.846 1.26 19.09 19.09 0 0 1-2.5-.505v5.3h-1.35v-.576h-7.112v.594h-1.3v-5.222c-.954.288-1.908.5-2.845.7a4.959 4.959 0 0 0-.648-1.169 26.888 26.888 0 0 0 7.076-2.251 13.186 13.186 0 0 1-2.358-2.072 16.187 16.187 0 0 1-2.809 1.747 4.154 4.154 0 0 0-.9-.954 12.01 12.01 0 0 0 5.113-4.033l1.44.252c-.252.359-.54.7-.828 1.062h5.348l.234-.054zm-11.163-.018h-1.315v-3.384h7.166c-.252-.469-.54-1.009-.809-1.442l1.3-.323a17.367 17.367 0 0 1 1.044 1.765h6.41v3.384h-1.35V464.9h-12.446zm10.515 5.942a21.737 21.737 0 0 1-4.25-1.711 23.219 23.219 0 0 1-4.014 1.711zm-.666 3.746v-2.611h-7.112v2.611zm-6.248-9.057a11.317 11.317 0 0 0 2.683 2.178 12.545 12.545 0 0 0 2.827-2.25h-5.439z" class="cls-3"/>
                <path id="Path_733" d="M655.452 471.852l-1.224 1.027a31.077 31.077 0 0 0-3.979-4l1.17-1.025a33.708 33.708 0 0 1 4.033 3.998z" class="cls-3"/>
                <path id="Path_734" d="M665.6 469.547a12.843 12.843 0 0 1-5.294 7.815 5.623 5.623 0 0 0-1.044-1.008 10.964 10.964 0 0 0 4.646-5.869h-4.285v-1.279h4.861l.233-.054zm9.633-1.656a47.366 47.366 0 0 1-4.733 3.909 11.234 11.234 0 0 0 5.347 4.358 5.371 5.371 0 0 0-.919 1.17 12.929 12.929 0 0 1-6.607-6.932v6.373c0 .811-.2 1.225-.775 1.44a10.235 10.235 0 0 1-3.024.235 4.656 4.656 0 0 0-.486-1.333c1.1.055 2.16.055 2.448.037.324-.019.433-.109.433-.4v-9.722h-4.953v-1.3h6.357v1.332a18.152 18.152 0 0 0 1.549 3.746 33 33 0 0 0 4.159-3.781zm-5.042-2.25a31.454 31.454 0 0 0-6.59-2.467l.649-1.1a31.917 31.917 0 0 1 6.626 2.323z" class="cls-3"/>
                <path id="Path_735" d="M679.312 473.725a26.981 26.981 0 0 1-.936 4.627c-.235-.107-.757-.269-1.045-.359a19.223 19.223 0 0 0 .9-4.448zm3.133-.738a9.647 9.647 0 0 0-.181-1.044c-3.493.54-4.051.647-4.357.828a7.447 7.447 0 0 0-.4-1.171c.361-.071.739-.521 1.242-1.205a21.1 21.1 0 0 0 1.441-2.071 9.425 9.425 0 0 0-2.395.395c-.072-.233-.27-.809-.4-1.115.288-.072.576-.469.919-1.009a22.854 22.854 0 0 0 2.178-4.573l1.152.486a28.063 28.063 0 0 1-2.557 4.807l1.765-.144a25.678 25.678 0 0 0 1.261-2.43l1.062.631a33.83 33.83 0 0 1-3.763 5.869l2.592-.325c-.162-.612-.324-1.242-.521-1.783l.954-.233a21.444 21.444 0 0 1 1.008 3.8zm-1.549.486a41.143 41.143 0 0 1 .486 4.141l-1.026.18a32.53 32.53 0 0 0-.433-4.159zm1.513-.432a26.007 26.007 0 0 1 .99 3.331l-.937.306a30.128 30.128 0 0 0-.917-3.367zm7.742 2.9c1.332.486 2.736 1.116 3.655 1.549l-.558.954c-.954-.468-2.449-1.171-3.782-1.71l.451-.793h-3.08l.956.81c-1.37.63-3.08 1.333-4.3 1.819a5.853 5.853 0 0 0-.558-.955 36.652 36.652 0 0 0 3.853-1.674h-2.791v-5.275h8.877v5.275zm-2.269-11.974h-4.591v-.936h4.591v-.973h1.318v.973h4.393v.936H689.2v.972h3.673v.9h-8.823v-.9h3.835zm-4.465 2.611h10.029v3.3h-10.029zm1.134 2.377h2.035v-1.477h-2.035zm.649 3.277h6.409v-.756H685.2zm0 1.422h6.409v-.774H685.2zm0 1.476h6.409v-.83H685.2zm4.3-6.175v-1.477h-1.87v1.477zm2.754-1.477h-1.71v1.477h1.71z" class="cls-3"/>
                <path id="Path_736" d="M701.053 472.862c-.036-.253-.108-.6-.2-.955-3.817.576-4.357.7-4.718.883a8.411 8.411 0 0 0-.431-1.243c.4-.09.81-.541 1.332-1.189.27-.324.828-1.08 1.476-2.034a9.426 9.426 0 0 0-2.484.414 12.081 12.081 0 0 0-.414-1.189c.3-.072.612-.431.99-.99a24.557 24.557 0 0 0 2.377-4.537l1.187.486a30.151 30.151 0 0 1-2.736 4.789l1.855-.144c.45-.756.918-1.584 1.3-2.4l1.152.685a35.868 35.868 0 0 1-4 5.8l2.827-.379c-.2-.594-.4-1.2-.612-1.764l1.026-.269a22.671 22.671 0 0 1 1.171 3.69zm-3.457.9a22.773 22.773 0 0 1-.918 4.411c-.234-.125-.793-.3-1.062-.414a20.309 20.309 0 0 0 .864-4.2zm1.746-.233a30.181 30.181 0 0 1 .505 3.781l-1.081.18a30.858 30.858 0 0 0-.45-3.781zm1.675-.469a19.82 19.82 0 0 1 .918 3.007l-.99.343a24.209 24.209 0 0 0-.882-3.043zM712 476.84v1.225h-10.245v-1.225h4.574v-3.421h-3.583v-1.206h8.534v1.206h-3.637v3.421zm-7.689-5.24a18.267 18.267 0 0 0-2.142-3.547 34.248 34.248 0 0 0 1.89-3.312l1.17.306c-.485.918-1.17 2.071-1.764 2.971a21.759 21.759 0 0 1 1.981 3.115zm7.526-7.435h-9.489v-1.225h9.489zm-3.51.9c-.505.9-1.189 2.053-1.8 2.934a24.169 24.169 0 0 1 2.034 3.062l-1.1.5a17.019 17.019 0 0 0-2.251-3.529 33.425 33.425 0 0 0 1.945-3.278zm2.322 6.535a19.019 19.019 0 0 0-2.431-3.547 30.985 30.985 0 0 0 2.017-3.312l1.188.324c-.522.918-1.26 2.053-1.854 2.953a20.731 20.731 0 0 1 2.16 3.061z" class="cls-3"/>
                <path id="Path_737" d="M719.952 467.585c-.558-.45-1.567-1.116-2.467-1.692a5.548 5.548 0 0 1-3.385 1.907 3.13 3.13 0 0 0-.684-.954c3.151-.72 3.745-2 3.907-4.807h1.188a9.851 9.851 0 0 1-.522 2.917c.972.557 2.125 1.3 2.791 1.782zm-4.591-2.682c-.288-.45-.919-1.225-1.387-1.8l.811-.576a20.337 20.337 0 0 1 1.422 1.693zm13.216 2.934h.468v3.242h-1.333v-2.161h-12.334v2.161H714.1v-3.242h14.206c-.81-.576-2.106-1.35-3.277-2a5.664 5.664 0 0 1-3.295 1.873 3.546 3.546 0 0 0-.684-1.007c3.043-.7 3.656-1.981 3.818-4.647h1.223a8.821 8.821 0 0 1-.54 2.828 37.273 37.273 0 0 1 3.709 2.143zm-7.311 5.42c-.2.361-.378.72-.522 1.044h7.184v4.178h-1.314v-.486h-9.759v.5h-1.278v-4.2h3.978c.145-.3.307-.7.45-1.044h-3.258v-3.348h9.687v3.348zm5.348 2.034h-9.759v1.694h9.759zm-8.607-2.953h7.113v-1.511h-7.113zm3.331-8.984a20.89 20.89 0 0 1-1.6 1.783l-.792-.379a12.182 12.182 0 0 0 1.3-1.836zm1.621 1.441c-.306-.468-.9-1.243-1.369-1.8l.792-.6a19.208 19.208 0 0 1 1.423 1.71zm6.3-1.476c-.593.683-1.259 1.4-1.764 1.872l-.846-.4a15.433 15.433 0 0 0 1.458-1.909z" class="cls-3"/>
            </g>
            <g id="Group_501">
                <path id="Path_738" d="M576.064 441.26c0-3.319 1.947-5.337 4.552-5.337a3.8 3.8 0 0 1 2.816 1.276l-.7.84a2.8 2.8 0 0 0-2.1-.981c-1.947 0-3.235 1.6-3.235 4.16 0 2.592 1.233 4.217 3.193 4.217a3.126 3.126 0 0 0 2.382-1.148l.714.812a3.968 3.968 0 0 1-3.152 1.471c-2.551 0-4.47-1.976-4.47-5.31z" class="cls-5"/>
                <path id="Path_739" d="M584.763 442.591c0-2.535 1.667-4.006 3.53-4.006s3.53 1.471 3.53 4.006-1.667 3.979-3.53 3.979-3.53-1.457-3.53-3.979zm5.743 0c0-1.751-.9-2.941-2.213-2.941s-2.2 1.19-2.2 2.941.883 2.914 2.2 2.914 2.213-1.163 2.213-2.914z" class="cls-5"/>
                <path id="Path_740" d="M593.713 438.782h1.051l.112 1.386h.042a2.629 2.629 0 0 1 2.157-1.583 1.625 1.625 0 0 1 .813.168l-.239 1.121a1.8 1.8 0 0 0-.742-.126c-.63 0-1.414.448-1.919 1.751v4.888h-1.275z" class="cls-5"/>
                <path id="Path_741" d="M598.463 442.591c0-2.465 1.667-4.006 3.432-4.006 1.933 0 3.026 1.4 3.026 3.572a4.959 4.959 0 0 1-.056.728h-5.127a2.521 2.521 0 0 0 2.521 2.662 3.283 3.283 0 0 0 1.906-.6l.462.84a4.528 4.528 0 0 1-2.521.785 3.636 3.636 0 0 1-3.643-3.981zm5.337-.616c0-1.541-.7-2.367-1.891-2.367a2.34 2.34 0 0 0-2.185 2.367z" class="cls-5"/>
                <path id="Path_742" d="M608.655 436.12h1.358l1.667 5.561c.365 1.2.6 2.185.995 3.39h.056c.378-1.205.63-2.186.995-3.39l1.652-5.561h1.322l-3.264 10.267h-1.5z" class="cls-5"/>
                <path id="Path_743" d="M617.173 444.413c0-1.654 1.443-2.48 4.678-2.844 0-.981-.322-1.919-1.568-1.919a4.2 4.2 0 0 0-2.284.812l-.5-.882a5.714 5.714 0 0 1 3-.995c1.849 0 2.633 1.247 2.633 3.123v4.679h-1.05l-.113-.91h-.042a4.071 4.071 0 0 1-2.521 1.093 2.063 2.063 0 0 1-2.233-2.157zm4.678.126v-2.129c-2.563.307-3.431.938-3.431 1.919 0 .868.588 1.218 1.344 1.218a3.109 3.109 0 0 0 2.087-1.008z" class="cls-5"/>
                <path id="Path_744" d="M625.381 444.874v-9.636h1.275v9.72c0 .393.168.547.364.547a1.118 1.118 0 0 0 .266-.028l.182.981a2.013 2.013 0 0 1-.742.112c-.953 0-1.345-.616-1.345-1.696z" class="cls-5"/>
                <path id="Path_745" d="M629.024 443.6v-4.818h1.276v4.664c0 1.415.421 2.017 1.429 2.017.785 0 1.331-.379 2.059-1.289v-5.392h1.275v7.6H634l-.1-1.19h-.042a3.267 3.267 0 0 1-2.522 1.373c-1.598.005-2.312-1.032-2.312-2.965z" class="cls-5"/>
                <path id="Path_746" d="M636.944 442.591c0-2.465 1.667-4.006 3.433-4.006 1.932 0 3.025 1.4 3.025 3.572a4.96 4.96 0 0 1-.056.728h-5.127a2.521 2.521 0 0 0 2.521 2.662 3.283 3.283 0 0 0 1.906-.6l.462.84a4.529 4.529 0 0 1-2.522.785 3.636 3.636 0 0 1-3.642-3.981zm5.337-.616c0-1.541-.7-2.367-1.891-2.367a2.34 2.34 0 0 0-2.185 2.367z" class="cls-5"/>
                <path id="Path_747" d="M644.444 445.519l.63-.841a3.454 3.454 0 0 0 2.256.9c1.008 0 1.5-.533 1.5-1.191 0-.77-.9-1.12-1.738-1.442-1.064-.393-2.269-.911-2.269-2.2 0-1.205.967-2.158 2.619-2.158a3.937 3.937 0 0 1 2.368.855l-.617.826a2.861 2.861 0 0 0-1.751-.672c-.952 0-1.386.5-1.386 1.092 0 .729.826.995 1.681 1.317 1.106.42 2.325.869 2.325 2.311 0 1.233-.98 2.256-2.773 2.256a4.584 4.584 0 0 1-2.845-1.053z" class="cls-5"/>
            </g>
        </g>
        <g id="Group_509">
            <path id="Path_748" d="M349.694 430.947l101.437.053 27.912 37.427-17.762 1.8H314.109z" class="cls-4"/>
            <path id="Path_749" d="M399.694 305.972l59.05 102.19 54.23-24.467-72.31-125.559z" class="cls-5"/>
            <path id="Path_750" d="M348.521 276.122l43 44.008-48.026 83.184-56.344-21.161z" class="cls-2"/>
            <circle id="Ellipse_187" cx="50" cy="50" r="50" fill="#fff" stroke="#e52c2c" stroke-miterlimit="10" stroke-width="4.018px" transform="translate(349.694 218.706)"/>
            <circle id="Ellipse_188" cx="50" cy="50" r="50" fill="#fff" stroke="#ffbd00" stroke-miterlimit="10" stroke-width="4.018px" transform="translate(256.327 379.832)"/>
            <circle id="Ellipse_189" cx="50" cy="50" r="50" fill="#fff" stroke="#0098ff" stroke-miterlimit="10" stroke-width="4.018px" transform="translate(443.673 379.832)"/>
            <g id="Group_503">
                <circle id="Ellipse_190" cx="14.887" cy="14.887" r="14.887" class="cls-10" transform="translate(382.814 255.029)"/>
                <circle id="Ellipse_191" cx="23.008" cy="23.008" r="23.008" class="cls-10" transform="translate(374.694 246.908)"/>
                <circle id="Ellipse_192" cx="4.061" cy="4.061" r="4.061" fill="#fff" stroke="#e52c2c" stroke-miterlimit="10" stroke-width="2px" transform="translate(393.64 265.855)"/>
                <path id="Line_154" d="M0 17.595L29.774 0" class="cls-12" transform="translate(397.701 252.321)"/>
                <path id="Line_155" d="M0 7.833L1.805 0" class="cls-12" transform="translate(427.476 244.488)"/>
                <path id="Line_156" d="M0 0L7.218 2.387" class="cls-12" transform="translate(427.476 252.321)"/>
            </g>
            <g id="Group_505">
                <path id="Path_753" d="M325.291 424.375s-12.57-6.986-18.906-6.986-19.021 6.986-19.021 6.986-9.616 5.664-.387 11.4c0 0 13.071 6.986 19.408 6.986s19.292-6.986 19.292-6.986c9.229-5.736-.386-11.4-.386-11.4z" class="cls-13"/>
                <circle id="Ellipse_193" cx="12.524" cy="12.524" r="12.524" class="cls-13" transform="translate(293.803 417.549)"/>
                <circle id="Ellipse_194" cx="5.571" cy="5.571" r="5.571" class="cls-13" transform="translate(300.756 424.503)"/>
                <g id="Group_504">
                    <path id="Path_754" d="M282.327 437.343v11.1a5.409 5.409 0 0 0 5.394 5.394h11.1" class="cls-14"/>
                    <path id="Path_755" d="M313.838 453.832h11.1a5.409 5.409 0 0 0 5.393-5.394v-11.1" class="cls-14"/>
                    <path id="Path_756" d="M298.816 405.832h-11.1a5.409 5.409 0 0 0-5.394 5.393v11.1" class="cls-14"/>
                    <path id="Path_757" d="M330.327 422.321v-11.1a5.409 5.409 0 0 0-5.393-5.393h-11.1" class="cls-14"/>
                </g>
            </g>
            <g id="Group_508">
                <g id="Group_507">
                    <path id="Path_758" d="M505.939 453.38a2.553 2.553 0 0 1 .76-2.279l11.184-11.184c.844-.844.831-10.146.759-11.4a57.345 57.345 0 0 0-2.279-9.879 4.3 4.3 0 0 0-3.8 2.279c-1.031 1.656-.857 3.411 0 6.08l-1.675 5.292" class="cls-15"/>
                    <path id="Path_759" d="M504.964 443.717l6.839-6.839c3.04-3.04-.76-6.84-3.8-3.8l-4.56 4.56c-.633.633-3.34.3-4.344 1.3l-3.8 3.8c-1.026 1.026-1.469 3.135-1.519 4.559 0 2.278-.108 6.187-.108 6.187" class="cls-16"/>
                    <g id="Group_506">
                        <path id="Path_760" d="M481.406 453.523a2.552 2.552 0 0 0-.76-2.28l-11.183-11.183c-.844-.845-.831-10.146-.76-11.4a57.493 57.493 0 0 1 2.28-9.879 4.3 4.3 0 0 1 3.8 2.28c1.031 1.655.857 3.411 0 6.079l1.675 5.293" class="cls-15"/>
                        <path id="Path_761" d="M482.382 443.86l-6.839-6.84c-3.04-3.039.759-6.839 3.8-3.8l4.56 4.559c.633.633 3.34.3 4.344 1.3l3.8 3.8c1.027 1.027 1.47 3.136 1.52 4.56 0 2.278.108 6.187.108 6.187" class="cls-16"/>
                    </g>
                </g>
                <path id="Path_762" d="M506.564 413.967c-.326-1.305-.816-4.569-5.874-5.058a7 7 0 0 0-7.017 3.59 7 7 0 0 0-7.017-3.59c-5.058.489-5.548 3.753-5.874 5.058s0 5.385 1.468 7.18 11.423 9.791 11.423 9.791 9.954-8 11.422-9.791 1.795-5.874 1.469-7.18z" class="cls-16"/>
            </g>
        </g>
    </g>
</svg>
