<svg xmlns="http://www.w3.org/2000/svg" width="30" height="30" viewBox="0 0 30 30">
    <g>
        <path fill="none" d="M0 0H30V30H0z" transform="translate(-660.5 -486) translate(660.5 486)"/>
        <path fill="#f20600" d="M24 10.937a4.291 4.291 0 0 0-4-5.83 4.264 4.264 0 0 0-2.379.723A7.143 7.143 0 0 0 4.286 9.393c0 .121 0 .241.009.362a6.43 6.43 0 0 0 2.134 12.5h16.428A5.714 5.714 0 0 0 24 10.937zM18.067 14.9l-4.705 4.7a.717.717 0 0 1-1.009 0l-4.706-4.7a.714.714 0 0 1 .5-1.219h2.92v-5a.716.716 0 0 1 .714-.714h2.143a.716.716 0 0 1 .714.714v5h2.92a.714.714 0 0 1 .509 1.219z" transform="translate(-660.5 -486) translate(661.5 488.75)"/>
    </g>
</svg>
