<svg xmlns="http://www.w3.org/2000/svg" width="36" height="36.363" viewBox="0 0 36 36.363">
    <g>
        <path fill="none" d="M0 0H36V36H0z" transform="translate(-157) translate(157)"/>
        <path fill="#f20600" d="M35.67 5.955l-3.045-3.046a2.25 2.25 0 0 0-1.591-.659H20.25V1.125A1.125 1.125 0 0 0 19.125 0h-2.25a1.125 1.125 0 0 0-1.125 1.125V2.25H3.938A1.688 1.688 0 0 0 2.25 3.938v5.625a1.688 1.688 0 0 0 1.688 1.687h27.1a2.251 2.251 0 0 0 1.591-.659l3.041-3.045a1.125 1.125 0 0 0 0-1.591zm-19.92 28.92A1.125 1.125 0 0 0 16.875 36h2.25a1.125 1.125 0 0 0 1.125-1.125V27h-4.5zM32.063 15.75H20.25V13.5h-4.5v2.25H4.966a2.251 2.251 0 0 0-1.591.659L.33 19.455a1.125 1.125 0 0 0 0 1.591l3.045 3.045a2.25 2.25 0 0 0 1.591.659h27.1a1.688 1.688 0 0 0 1.688-1.687v-5.625a1.688 1.688 0 0 0-1.691-1.688z" transform="translate(-157) translate(157 .363)"/>
    </g>
</svg>
