<svg xmlns="http://www.w3.org/2000/svg" width="140" height="140" viewBox="0 0 140 140">
    <g transform="translate(-650 -1166)">
        <path fill="none" d="M0 0H140V140H0z" transform="translate(650 1166)"/>
        <circle cx="33.5" cy="33.5" r="33.5" fill="rgba(242,6,0,0.1)" transform="translate(653 1181)"/>
        <g>
            <path d="M889.692 648.6a1.8 1.8 0 0 1-1.8-1.8v-48.74a1.8 1.8 0 1 1 3.6 0v48.74a1.8 1.8 0 0 1-1.8 1.8z" transform="translate(-198.133 602.45) translate(3.809 4.571)"/>
            <path d="M890.818 675.906a1.852 1.852 0 0 1-.5-.07 10.169 10.169 0 0 1-7.175-10.028c.2-4.206 3.706-7.892 8.337-8.767a1.9 1.9 0 0 1 .335-.031H954.9v-64.448a1.8 1.8 0 0 1 1.8-1.8h.38a1.8 1.8 0 0 1 1.421 2.908v64.762a1.8 1.8 0 0 1-1.435 1.763c-.085.029-.2.07-.308.113a3.249 3.249 0 0 1-1.2.3h-63.565c-2.535.538-5.119 2.524-5.252 5.367a6.588 6.588 0 0 0 4.348 6.326l32.627-.065a1.8 1.8 0 0 1 0 3.6l-32.9.065z" transform="translate(-198.133 602.45) translate(0 .169)"/>
            <path d="M926.994 643.761h-4.95a1.8 1.8 0 0 1 0-3.6h3.149v-6.576a1.8 1.8 0 1 1 3.6 0v8.376a1.8 1.8 0 0 1-1.799 1.8z" transform="translate(-198.133 602.45) translate(29.711 33.011)"/>
            <path d="M885.2 668.426a1.8 1.8 0 0 1-1.8-1.8V605.3a1.793 1.793 0 0 1 .353-1.069 14.242 14.242 0 0 1 9.621-13.587 1.754 1.754 0 0 1 .555-.088H956.4a1.8 1.8 0 0 1 0 3.6h-62.175a10.476 10.476 0 0 0-6.8 10.9 1.808 1.808 0 0 1-.425 1.415v60.158a1.8 1.8 0 0 1-1.8 1.797z" transform="translate(-198.133 602.45) translate(.212)"/>
            <g>
                <path fill="red" d="M908.3 654.192l9.381-9.037 8.967 8.965v-20.179h-.285l-17.144-.191c-.126.128.128-.126 0 0z" transform="translate(-198.133 602.45) translate(926.659 666.498) translate(-906.506 -631.941)"/>
                <path d="M909.107 656.781a1.8 1.8 0 0 1-1.8-1.882l.906-20.122a1.747 1.747 0 0 1 .49-1.462l.007-.009.009-.009h.005l.018-.018a1.856 1.856 0 0 1 1.509-.526l17.192.189a1.8 1.8 0 0 1 1.8 1.8v20.188a1.8 1.8 0 0 1-3.174 1.163l-7.617-7.613-8.106 7.809a1.807 1.807 0 0 1-1.239.492zm9.381-12.638a1.8 1.8 0 0 1 1.273.528l5.891 5.891v-14.05l-13.906-.153-.639 14.194 6.131-5.9a1.788 1.788 0 0 1 1.25-.51z" transform="translate(-198.133 602.45) translate(926.659 666.498) translate(-907.306 -632.729)"/>
            </g>
            <path d="M905.052 643.953a1.8 1.8 0 0 1-1.565-2.688 23.972 23.972 0 0 1 5.033-5.7c1.358-1.239 2.915-2.6 4.473-3.967 1.532-1.343 3.066-2.687 4.4-3.906a1.8 1.8 0 0 1 2.074-.25 11.249 11.249 0 0 0 16.3-12.534 12.745 12.745 0 0 0-.89-2.6l-5.436 5.854a3.849 3.849 0 0 1-3.243 1.482 3.786 3.786 0 0 1-2.144-1.233l-4.167-4.192a2.437 2.437 0 0 1-.153-3.6c1.232-1.415 2.415-3.036 3.56-4.6.789-1.077 1.594-2.181 2.436-3.248a9.815 9.815 0 0 0-10.326 1.136c-4.557 3.853-4.316 11.027-3.918 14.344a1.8 1.8 0 0 1 .506 3.021 2.231 2.231 0 0 1-.3.223c-5.242 3.621-10.357 7.537-15.2 11.648a1.8 1.8 0 0 1-2.328-2.748c4.455-3.774 9.129-7.391 13.92-10.771a2.977 2.977 0 0 1-.1-.479c-1.062-7.788.8-14.345 5.108-17.988a13.31 13.31 0 0 1 16.461-.211 1.8 1.8 0 0 1 .231 2.586c-1.237 1.421-2.422 3.043-3.569 4.613-1.01 1.381-2.051 2.805-3.16 4.145l3.569 3.59.018.016q.073-.07.173-.178l6.936-7.469a1.8 1.8 0 0 1 1.28-.574 1.773 1.773 0 0 1 1.305.518 12.168 12.168 0 0 1 2.942 5.868 14.845 14.845 0 0 1-20.354 17.113c-1.122 1-2.337 2.069-3.553 3.135-1.54 1.349-3.079 2.7-4.422 3.922a20.908 20.908 0 0 0-4.323 4.818 1.8 1.8 0 0 1-1.574.904z" transform="translate(-198.133 602.45) translate(8.32 6.119)"/>
        </g>
    </g>
</svg>
