<svg xmlns="http://www.w3.org/2000/svg" width="140" height="140" viewBox="0 0 140 140">
    <defs>
        <style>
            .cls-3{fill:none;stroke:#000;stroke-linecap:round;stroke-linejoin:round;stroke-width:4px}
        </style>
    </defs>
    <g id="service-step3-demo.png" transform="translate(-650 -1166)">
        <path id="Icon_Base" fill="none" d="M0 0H140V140H0z" transform="translate(650 1166)"/>
        <circle id="Ellipse_119" cx="33.5" cy="33.5" r="33.5" fill="rgba(242,6,0,0.1)" transform="translate(653 1181)"/>
        <g id="Group_152" transform="translate(255.545 1039.653)">
            <g id="Group_151" transform="translate(416.455 153.978)">
                <path id="Path_200" d="M416.455 153.333c.06 18.766.17 37.535.151 56.3 0 5.051.132 5.236 5.186 5.18 8.954-.1 17.911.008 26.867-.054 2.111-.016 4.093.163 5.5 1.881 1.391 1.693 3.175 1.863 5.173 1.852 4.048-.027 8.1.095 12.145.157" class="cls-3" transform="translate(-416.455 -147.445)"/>
                <path id="Path_201" d="M462.606 213.217c-2.086-.613-4.588-.706-6.159-1.962-2.347-1.873-4.8-2.071-7.46-2.078q-10.859-.032-21.716.006a16.957 16.957 0 0 1-6.442-.89v-56.587c2.56-1.209 7.547-1.416 7.547-1.416h18.395c6.4.623 10.333 4.046 13.809 8.249 1.242 1.5.443 4.772.472 7.208.165 14.473.075 28.947.091 43.421a4.01 4.01 0 0 1-.747 2.578" class="cls-3" transform="translate(-412.365 -150.29)"/>
                <rect id="Rectangle_171" width="33.816" height="10.094" fill="red" stroke="#707070" stroke-width="4px" rx="2.168" transform="translate(63.027 81.844)"/>
                <path id="Path_202" d="M480.405 218.364l-4.048.718c-7.6-.387-15.231.768-22.834-.639-2.607-.484-4.273 1.523-4.4 4.337-.306 6.566-.252 6.624 6.256 6.624q11.41 0 22.82-.006a37.416 37.416 0 0 0 4.271-.493s1.529-7.45-1.593-11c-1.126-1.281-.9-3.644-.079-5.42 2.454-5.337 1.771-10.987 1.813-16.57a5.578 5.578 0 0 0-.689-3.34 7.534 7.534 0 0 0-4.793-3.783 109.54 109.54 0 0 0-12.2-2.688c-2.75-.391-2.992-1.651-2.951-3.8.079-4.292-.008-8.586.035-12.88a4.954 4.954 0 0 0-3.363-4.693 3.69 3.69 0 0 0-4.362 1.393 6.222 6.222 0 0 0-1.153 4.037c.079 6.008.015 12.021.045 18.031.008 1.585-.033 3.121-1.117 4.416" class="cls-3" transform="translate(-385.998 -137.036)"/>
                <path id="Path_203" d="M481.407 193.928V150.5h-17.3c-3.557 0-7.123.157-10.672-.035-5.917-.319-8.462 4.259-11.779 7.764" class="cls-3" transform="translate(-392.889 -150.137)"/>
                <path id="Path_204" d="M466.569 153.333l-.186 40.11" class="cls-3" transform="translate(-369.768 -147.445)"/>
                <path id="Path_205" d="M444.985 178.816c3.21 6.806 5.54 14.107 11.21 19.521 1.821 1.738 0 4.286 1.12 6.239" class="cls-3" transform="translate(-389.777 -123.616)"/>
                <path id="Path_206" d="M456.948 183.02c-1.734-3.069-4.969-4.253-7.794-5.765-1.386-.741-3.679.888-4.168 3.189" class="cls-3" transform="translate(-389.777 -125.244)"/>
            </g>
            <path id="Path_207" fill="red" stroke="#000" stroke-linecap="round" stroke-linejoin="round" stroke-width="4px" d="M425.8 176.032l7.713-7.429 7.369 7.371v-29.44h-.232l-14.093-.157z" transform="translate(8.737)"/>
        </g>
    </g>
</svg>
