<svg xmlns="http://www.w3.org/2000/svg" width="140" height="140" viewBox="0 0 140 140">
    <defs>
        <style>
            .cls-3{fill:none;stroke:#000;stroke-linecap:round;stroke-linejoin:round;stroke-width:4px}
        </style>
    </defs>
    <g id="service-step1-plan.png" transform="translate(-1071 -1166)">
        <path id="Icon_Base" fill="none" d="M0 0H140V140H0z" transform="translate(1071 1166)"/>
        <circle id="Ellipse_120" cx="41" cy="41" r="41" fill="rgba(242,6,0,0.1)" transform="translate(1129 1213)"/>
        <g id="Group_128" transform="translate(64.314 677.981)">
            <path id="Path_176" d="M1051.027 570.906c1.186 4.268 4.355 5.653 8.4 5.731a34.026 34.026 0 0 0 5.3-.028c8.973-1.248 16.484.923 21.673 8.855a4.949 4.949 0 0 0 .879.887c1.552 1.394 2.867 3.985 5.244 2.959 2.205-.951 1.261-3.624 1.373-5.607.059-1.026.023-2.059.009-3.089-.036-2.408.608-3.784 3.53-4.061 7.319-.7 8.909-3.914 8.864-10.5-.061-8.827-.373-17.673.1-26.476.359-6.659-3.692-11.288-10.287-10.173a13.459 13.459 0 0 1-2.208.016" class="cls-3" transform="translate(18.203 13.411)"/>
            <path id="Path_177" fill="red" stroke="#000" stroke-linecap="round" stroke-linejoin="round" stroke-width="4px" d="M1074.017 522.164c-.884.589-1.762 1.186-2.653 1.764-2.744 1.778-5.222.951-5.644-2.217-.222-1.666-.375-3.514-1.9-3.836a21.707 21.707 0 0 0-7.034-.025c-.836.1-1.508 1.252-1.384 2.553.162 1.7.29 3.343-2.137 4.061a3.632 3.632 0 0 1-4.462-1.406 7.01 7.01 0 0 0-1.151-.978c-6.981 3.658-7.379 4.965-3.243 10.253-.7 2.443-1.878 4-4.874 4.036-3.644.046-2.513 3.08-2.653 5.214-.187 2.85-.269 5.153 3.983 5.006 3.188-.112 4.195 2.575 2.159 5.109-2.388 2.971-.756 4.615 1.31 6.716 2.187 2.224 3.67 2.192 5.874.007 2.04-2.025 5.105-.6 5.128 2.584.029 4.236 2.555 3.964 5.415 4.01 2.891.046 5.2.16 4.99-4.017a3.182 3.182 0 0 1 4.735-3.083c4.975 2.811 5.26 2.726 8.845-2.646a4.888 4.888 0 0 1 .544-.549c-.615-.836-1.277-1.668-1.867-2.546-1.91-2.834-.782-5.7 2.642-5.621 4.917.119 3.356-3.6 3.894-5.872.589-2.484-.717-4.325-3.45-4.342-2.351-.016-3.476-1.353-4.568-2.92 4.335-6.387 4.218-6.969-2.061-11.254" transform="translate(6.6 3.593)"/>
            <path id="Path_178" d="M1037.5 512.96c-7.835 1.98-8.841 3.3-8.841 11.582q0 21.382.005 42.766c.007 6.74 2.587 9.752 9.284 10.161 2.744.167 3.206 1.359 3.114 3.651-.109 2.669-.007 5.345-.032 8.018-.014 1.511.016 3.012 1.78 3.547 1.326.4 2.226-.362 3.1-1.3 3.354-3.6 7.063-6.909 10.049-10.787 2.027-2.631 4.348-3.048 7.177-3.044q15.471.024 30.943.005c8.384-.005 11.052-2.7 11.052-11.135v-43.659c0-6.39-3.354-9.791-9.723-9.795q-28.733-.024-57.465-.005" class="cls-3"/>
            <path id="Path_179" fill="#fff" stroke="#000" stroke-linecap="round" stroke-linejoin="round" stroke-width="4px" d="M1052.1 526.9c-3.13 1.575-5.961 3.126-5.845 7.506.1 3.658 1.622 5.541 4.945 6.663 3.594 1.213 6.247-.537 8.32-2.779 1.99-2.152 1.046-7.17-1.252-9.159-1.606-1.391-3.354-2.685-5.727-2.23" transform="translate(13.999 11.022)"/>
        </g>
    </g>
</svg>
