<svg xmlns="http://www.w3.org/2000/svg" width="140" height="140" viewBox="0 0 140 140">
    <defs>
        <style>
            .cls-5{fill:none;stroke:#000;stroke-linecap:round;stroke-linejoin:round;stroke-width:3.909px}
        </style>
    </defs>
    <g id="download-app-02" transform="translate(-.244)">
        <path id="Icon_Base" fill="none" d="M0 0H140V140H0z" transform="translate(.244)"/>
        <circle id="Ellipse_118" cx="36.5" cy="36.5" r="36.5" fill="rgba(242,6,0,0.1)" transform="translate(4 14)"/>
        <g id="Group_359" transform="translate(8.414 10.183)">
            <g id="Group_357" stroke="#000" stroke-miterlimit="10" stroke-width="4px">
                <circle id="Ellipse_174" cx="10.397" cy="10.397" r="10.397" fill="none" transform="translate(75.22 63.377)"/>
                <path id="Path_536" fill="red" d="M67.5 103.183s-.891-13.368 18.121-13.368 17.526 13.368 17.526 13.368"/>
            </g>
            <g id="Group_358">
                <path id="Path_537" d="M85.33 52.867v-36.05H28.648l-7.818 7.818V97.5h39.091" class="cls-5"/>
                <path id="Path_538" d="M32.557 22.681v5.864h-5.864" class="cls-5"/>
                <path id="Line_112" d="M33.227 0L0 0" class="cls-5" transform="translate(36.466 42.226)"/>
                <path id="Line_113" d="M33.227 0L0 0" class="cls-5" transform="translate(36.466 50.044)"/>
                <path id="Line_114" d="M23.455 0L0 0" class="cls-5" transform="translate(36.466 57.863)"/>
            </g>
        </g>
    </g>
</svg>
