<svg xmlns="http://www.w3.org/2000/svg" width="140" height="140" viewBox="0 0 140 140">
    <defs>
        <style>
            .cls-3{fill:none;stroke:#000;stroke-width:4px;stroke-miterlimit:10}
        </style>
    </defs>
    <g id="download-app-03" transform="translate(-.244)">
        <path id="Icon_Base" fill="none" d="M0 0H140V140H0z" transform="translate(.244)"/>
        <circle id="Ellipse_118" cx="36.5" cy="36.5" r="36.5" fill="rgba(242,6,0,0.1)" transform="translate(67)"/>
        <g id="Group_362" transform="translate(10.244 10)">
            <g id="Group_360">
                <path id="Path_539" d="M100 86V18H20v84h80V86" class="cls-3"/>
                <path id="Line_115" d="M0 0L80 0" class="cls-3" transform="translate(20 30)"/>
                <path id="Line_116" d="M0 0L4 0" class="cls-3" transform="translate(26 24)"/>
                <path id="Line_117" d="M0 0L4 0" class="cls-3" transform="translate(34 24)"/>
                <path id="Line_118" d="M0 0L4 0" class="cls-3" transform="translate(42 24)"/>
            </g>
            <g id="Group_361" stroke="#000" stroke-width="4px">
                <path id="Path_540" fill="red" stroke-linejoin="round" d="M83 69v-5.52c0-1.017-.825-2.241-1.841-2.241h-2.9a1.685 1.685 0 0 1-1.759-1.088 9.712 9.712 0 0 0-.685-1.537 1.784 1.784 0 0 1 .319-2.112l2.084-2.071a1.826 1.826 0 0 0 0-2.585l-3.908-3.912a1.84 1.84 0 0 0-2.6 0l-2.093 2.091a1.873 1.873 0 0 1-2.145.329 13.654 13.654 0 0 0-1.388-.658A1.7 1.7 0 0 1 65 47.949v-2.865c0-1.016-1.224-1.841-2.241-1.841h-5.52c-1.016 0-2.239.825-2.239 1.841v2.863a1.7 1.7 0 0 1-1.085 1.753 15.283 15.283 0 0 0-1.486.655 1.8 1.8 0 0 1-2.094-.33l-2.07-2.1a1.825 1.825 0 0 0-2.59 0l-3.9 3.911a1.839 1.839 0 0 0-.005 2.594l2.1 2.121a1.858 1.858 0 0 1 .315 2.158 8.569 8.569 0 0 0-.686 1.441 1.685 1.685 0 0 1-1.749 1.092h-2.9c-1.016 0-1.839 1.224-1.839 2.241V69c0 1.016.823 2.239 1.839 2.239h2.907a1.7 1.7 0 0 1 1.756 1.1 8.878 8.878 0 0 0 .674 1.448 1.755 1.755 0 0 1-.336 2.1L41.793 77.9a1.824 1.824 0 0 0 0 2.6l3.9 3.881a1.84 1.84 0 0 0 2.6 0l2.1-2.1a1.873 1.873 0 0 1 2.143-.332 13.746 13.746 0 0 0 1.384.65A1.7 1.7 0 0 1 55 84.336V87.4c0 1.016 1.223 1.84 2.239 1.84h5.52c1.016 0 2.241-.824 2.241-1.84v-3.066a1.7 1.7 0 0 1 1.084-1.748 15.529 15.529 0 0 0 1.486-.655 1.8 1.8 0 0 1 2.093.33l2.071 2.1a1.825 1.825 0 0 0 2.589 0l3.889-3.9a1.839 1.839 0 0 0-.01-2.609l-2.037-2.012a1.83 1.83 0 0 1-.34-2.152 7.774 7.774 0 0 0 .671-1.345 1.7 1.7 0 0 1 1.757-1.1h2.906C82.175 71.243 83 70.02 83 69z"/>
                <circle id="Ellipse_175" cx="7" cy="7" r="7" fill="#fff" stroke-miterlimit="10" transform="translate(53 59.243)"/>
            </g>
        </g>
    </g>
</svg>
