<svg xmlns="http://www.w3.org/2000/svg" width="140" height="140" viewBox="0 0 140 140">
    <defs>
        <style>
            .cls-1,.cls-3,.cls-6{fill:none}.cls-3,.cls-6{stroke:#000;stroke-linejoin:round;stroke-linecap:round}.cls-3{stroke-width:4.5px}.cls-6{stroke-width:4px}
        </style>
    </defs>
    <g id="download-app-01" transform="translate(.387)">
        <path id="Icon_Base" d="M0 0H140V140H0z" class="cls-1" transform="translate(-.387)"/>
        <circle id="Ellipse_118" cx="36.5" cy="36.5" r="36.5" fill="rgba(242,6,0,0.1)" transform="translate(56 55)"/>
        <g id="Group_356" transform="translate(9.613 10.447)">
            <path id="Path_530" d="M97.293 20.564c5.94 1.152 7.99 6.142 7.676 12.225-1.224 23.678-35.452 39.994-35.437 62.482.005 6.091 4.246 11.947 10.187 13.1a9.5 9.5 0 0 0 11.325-8.928 26.325 26.325 0 0 0-.611-6.454l-12.615-2.447" class="cls-3"/>
            <path id="Path_531" d="M41.364 9.72l55.929 10.844a9.832 9.832 0 0 0-10.028 4.749 10.778 10.778 0 0 0-1.157 7.825.32.32 0 0 1-.373.4l-54.409-10.59c-1.492-3.461-1.2-7.525.873-9.886a9.78 9.78 0 0 1 9.165-3.342z" class="cls-3"/>
            <path id="Path_532" d="M44.178 25.451C36.588 52.29 14.986 60.374 15 81.464c0 6.09 2.917 12.965 10.357 15.024 6.236 1.726 54.362 11.882 54.362 11.882" class="cls-3"/>
            <g id="Group_355">
                <path id="Path_533" fill="red" stroke="#000" stroke-linejoin="round" stroke-width="4px" d="M64 49.264a5.128 5.128 0 0 0 2.618 2.921 5.125 5.125 0 0 1 2.4 6.838 5.124 5.124 0 0 0-.214 3.917 5.125 5.125 0 0 1-3.135 6.535 5.127 5.127 0 0 0-2.921 2.619 5.125 5.125 0 0 1-6.838 2.4 5.124 5.124 0 0 0-3.91-.21 5.125 5.125 0 0 1-6.535-3.134 5.121 5.121 0 0 0-2.619-2.921 5.125 5.125 0 0 1-2.4-6.838 5.125 5.125 0 0 0 .214-3.917 5.126 5.126 0 0 1 3.134-6.536 5.122 5.122 0 0 0 2.921-2.618 5.126 5.126 0 0 1 6.838-2.4 5.125 5.125 0 0 0 3.917.214 5.125 5.125 0 0 1 6.53 3.13z"/>
                <g id="Ellipse_173" fill="#fff" stroke="#000" stroke-linejoin="round" stroke-width="4px" transform="translate(48.351 53.822)">
                    <circle cx="6.384" cy="6.384" r="6.384" stroke="none"/>
                    <circle cx="6.384" cy="6.384" r="4.384" class="cls-1"/>
                </g>
                <path id="Path_534" d="M55.159 74.206l.613 13.07-3.887-3.3-3.56 3.65-.5-10.652" class="cls-6"/>
                <path id="Path_535" d="M44.49 69.477l-10.256 7.468 5.007.965-.618 5.062 5.742-4.181" class="cls-6"/>
            </g>
        </g>
    </g>
</svg>
