<svg xmlns="http://www.w3.org/2000/svg" width="140" height="140" viewBox="0 0 140 140">
    <defs>
        <style>
            .cls-4,.cls-5{fill:none;stroke:#000;stroke-linecap:round;stroke-linejoin:round;stroke-width:4px}.cls-5{stroke:red}
        </style>
    </defs>
    <g id="service-step1-demo.png" transform="translate(-650 -1166)">
        <path id="Icon_Base" fill="none" d="M0 0H140V140H0z" transform="translate(650 1166)"/>
        <circle id="Ellipse_119" cx="33.5" cy="33.5" r="33.5" fill="rgba(242,6,0,0.1)" transform="translate(696 1195)"/>
        <g id="Group_153" transform="rotate(-31 2530.215 449.406)">
            <rect id="Rectangle_172" width="5.167" height="17.105" fill="red" rx="1.478" transform="translate(519.353 175.637)"/>
            <path id="Path_208" d="M559.108 164.277a21.529 21.529 0 0 0 2.608 1.736c.958.6 4.439 2.1 6.471.376A19.369 19.369 0 0 0 573 159.05c.724-1.678 1.135-3.486 1.776-5.2 1.649-4.4.131-6.862-2.268-9a20.425 20.425 0 0 0-4.446-3.245c-6.4-3.2-6.285-3.217-11.579 1.79-8.4 7.946-11.831 18.113-13.459 29.147" class="cls-4" transform="translate(18.24)"/>
            <path id="Path_209" d="M574.6 150.636a48.948 48.948 0 0 1 12.165 32.17c.065 11.569-3.99 21.744-10.915 30.823" class="cls-5" transform="translate(41.876 8.424)"/>
            <path id="Path_210" d="M569.134 155.112c5.862 3.958 8.436 10.205 9.329 16.552.976 6.925 1.365 14.181-1.469 21.066-1.862 4.518-4.074 8.726-7.861 11.941" class="cls-5" transform="translate(37.782 11.774)"/>
            <path id="Path_211" d="M541.776 159.284c2.652.206 4.684-.033 6.948.135 3.949.294 7.78-1.3 11.765-.189 4.287 1.2 5.555 2.579 5.651 7.009a99.008 99.008 0 0 1-1.754 21.3c-.754 3.845-1.755 7.563-5.215 10" class="cls-4" transform="translate(17.309 14.556)"/>
            <path id="Path_212" d="M573.441 214.292a5.469 5.469 0 0 0 6.516-.442c2.275-1.935 4.549-3.9 6.992-5.6a4.624 4.624 0 0 0 1.6-5.652c-1.572-4.519-2.607-9.333-5.946-13.106-1.362-1.54-2.533-2.636-4.831-1.764-2.456.934-4.967 1.383-6.1-2.114-.692-2.145-2.657-1.736-4.32-1.741-5.362-.019-10.738-.238-16.083.073-3.622.212-7.34-.74-9.39-2.864-4.729-4.9-10.228-5.4-16.268-5.042" class="cls-4" transform="translate(5.212 27.366)"/>
            <path id="Path_213" d="M565.5 160.117c7.24 10.717 7.112 21.489-.35 32.114" class="cls-5" transform="translate(34.804 15.519)"/>
            <path id="Path_214" d="M543.269 181.22c2.147 11.747 7.193 21.811 16.957 29.126" class="cls-4" transform="translate(18.426 31.312)"/>
            <path id="Path_215" d="M518.647 156.335c11.81-.565 10.931-1.063 10.966 9.78.026 8.254-1.019 16.555.615 24.811.182.918.1 3.03.159 4.4.119 2.743-2.039 3.509-4.784 3.4-2.318-.1-4.638-.15-6.957-.222" class="cls-4" transform="translate(0 12.507)"/>
            <path id="Path_216" d="M551.886 153.372c-3.392-.073-6.822 1.149-8.548 3.584-4.656 6.574-11.008 7.046-17.977 6.415" class="cls-4" transform="translate(5.025 10.47)"/>
            <path id="Path_217" d="M553.157 153.62s-2.353 5.27-2.175 8.259" class="cls-4" transform="translate(24.191 10.657)"/>
        </g>
    </g>
</svg>
