<svg xmlns="http://www.w3.org/2000/svg" width="140" height="142" viewBox="0 0 140 142">
    <defs>
        <style>
            .cls-3{fill:red}
        </style>
    </defs>
    <g id="cs-app-connect" transform="translate(-235 -1167)">
        <path id="Icon_Base" fill="none" d="M0 0H140V140H0z" transform="translate(235 1167)"/>
        <circle id="Ellipse_118" cx="36.5" cy="36.5" r="36.5" fill="rgba(242,6,0,0.1)" transform="translate(240 1236)"/>
        <g id="Group_126" transform="translate(-693.065 600.506)">
            <path id="Path_164" d="M975.56 623.435l-8.289 6.653 17.491 14.924 9.354-6.031 6.268 6.532 18.087-17.286-9.317-4.753-13.865 13.734-3.838-1z" class="cls-3" transform="translate(12.362 40.011)"/>
            <ellipse id="Ellipse_121" cx="5.297" cy="4.703" class="cls-3" rx="5.297" ry="4.703" transform="translate(1000.357 653.539)"/>
            <path id="Path_165" d="M968.892 598.232a168.369 168.369 0 0 0 0 27.151c.347 3.781.831 7.814 3.073 11.005a10.3 10.3 0 0 0 8.792 4.7c2.792-.13 2.807-4.486 0-4.356-7.594.354-7.576-10.982-7.851-16.06a181.178 181.178 0 0 1 .347-22.438c.2-2.8-4.163-2.786-4.356 0z" transform="translate(13.362 14.457)"/>
            <path id="Path_166" d="M972.074 592.263a59.376 59.376 0 0 0 37.112 28.341c2.72.678 3.88-3.522 1.158-4.2a55.015 55.015 0 0 1-34.508-26.337c-1.371-2.445-5.135-.252-3.762 2.2z" transform="translate(16.581 7.772)"/>
            <path id="Path_167" d="M992.606 606.289a33.765 33.765 0 0 1-.023 12.316c-.66 3.114-2.238 6.552-5.417 7.787a2.242 2.242 0 0 0-1.522 2.68 2.2 2.2 0 0 0 2.68 1.52c9.853-3.824 9.942-16.707 8.482-25.46a2.195 2.195 0 0 0-2.68-1.522 2.228 2.228 0 0 0-1.52 2.68z" transform="translate(29.487 21.387)"/>
            <path id="Path_168" d="M964.687 592.669a65.4 65.4 0 0 0-1.669 26.578c.98 6.815 3.127 14.755 9.838 18.047 2.509 1.229 4.718-2.527 2.2-3.762-5.9-2.895-7.264-10.531-7.959-16.43a60.985 60.985 0 0 1 1.793-23.275c.74-2.709-3.462-3.863-4.2-1.158z" transform="translate(7.761 9.767)"/>
            <path id="Path_169" d="M967.559 604.114c3.768-7.419 9.754-14.078 17.623-17.2a27.272 27.272 0 0 1 23.958 2.006c7.65 4.682 11.222 13.276 12.659 21.791a107.993 107.993 0 0 1 1.063 15.617c.106 4.959.881 10.215.31 15.148-1.049 9.022-10.1 14.976-18.647 15.323-2.794.114-2.807 4.471 0 4.356 8.7-.352 17.528-5.183 21.278-13.282 2.217-4.794 1.8-9.776 1.6-14.91-.252-6.151-.134-12.325-.747-18.459-1.013-10.147-4.19-20.773-12.488-27.356a31.342 31.342 0 0 0-26.312-5.625c-10.684 2.494-19.2 10.829-24.051 20.392-1.268 2.494 2.49 4.7 3.76 2.2z" transform="translate(8.87)"/>
            <path id="Path_170" d="M998.1 603.166a2.113 2.113 0 0 1 1.87-.108 3.585 3.585 0 0 1 1.717 1.293 10.584 10.584 0 0 1 1.572 5.627 9.288 9.288 0 0 1-1.353 5.973 4.787 4.787 0 0 1-4.207 2.107 2.178 2.178 0 0 0 0 4.356 9.085 9.085 0 0 0 7.718-3.917 13.454 13.454 0 0 0 2.151-9.179c-.269-3.063-1.011-6.37-3.3-8.594a7.082 7.082 0 0 0-8.37-1.319c-2.426 1.4-.234 5.17 2.2 3.762z" transform="translate(38.175 16.728)"/>
            <path id="Path_171" d="M967.656 598.908a7.924 7.924 0 0 0-7.756 3.632c-1.847 2.666-1.946 6.143-1.808 9.261.14 3.193.366 6.558 2.6 9.059 2.349 2.635 5.727 2.484 8.92 2.023a2.194 2.194 0 0 0 1.522-2.68 2.236 2.236 0 0 0-2.68-1.522c-1.615.234-3.574.5-4.711-.933-1.274-1.609-1.206-4.012-1.291-5.948-.091-2.031-.211-4.3.7-6.192.592-1.229 2.033-2.68 3.353-2.5a2.255 2.255 0 0 0 2.68-1.522 2.192 2.192 0 0 0-1.52-2.68z" transform="translate(3.729 16.978)"/>
            <path id="Path_172" d="M975.929 594.543q-2.1 1.841-4.279 3.6-1.054.851-2.126 1.682c-.192.149-.093.081.039-.029-.085.072-.178.137-.269.205-.2.155-.4.31-.606.463-.383.29-.767.577-1.152.864a2.369 2.369 0 0 0-1 1.3 2.228 2.228 0 0 0 .219 1.679 2.2 2.2 0 0 0 2.98.782q4.783-3.549 9.276-7.466a2.192 2.192 0 0 0 0-3.081 2.231 2.231 0 0 0-3.08 0z" transform="translate(11.604 12.386)"/>
            <path id="Path_173" d="M993.354 622.439c-2.631-5.222-10.271-7.111-14.672-2.991a6.266 6.266 0 0 0-2.023 4.343 6.1 6.1 0 0 0 1.919 4.4 9.884 9.884 0 0 0 9.133 2.465 8.243 8.243 0 0 0 3.865-2.552 7.257 7.257 0 0 0 2.077-4.564 2.178 2.178 0 0 0-4.356 0 2.4 2.4 0 0 0-.014.275c-.145-.147.112-.443 0-.151-.035.089-.06.2-.089.29-.108.364 0-.014.037-.077-.108.2-.207.4-.327.592-.062.1-.13.194-.194.29-.223.339.134-.132-.039.056a11.907 11.907 0 0 1-1 1.024c-.052.045-.347.273-.114.1s-.06.039-.118.076c-.2.128-.4.24-.6.356-.352.2.114-.033.132-.05a1.629 1.629 0 0 1-.41.132c-.139.039-.279.068-.418.1-.081.019-.41.029-.056.014-.289.014-.571.029-.86.017-.145-.006-.288-.017-.432-.031.315.031-.039-.01-.172-.037q-.427-.087-.842-.215-.209-.064-.412-.139c-.056-.019-.471-.192-.229-.083.227.1-.122-.064-.172-.089-.083-.041-.165-.083-.246-.128a8.011 8.011 0 0 1-.788-.5c.36.252-.18-.17-.267-.255s-.166-.176-.25-.263-.2-.316 0 .017c-.122-.205-.25-.4-.358-.614.047.093.114.4.029.027-.015-.062-.12-.548-.072-.234.044.292 0-.083 0-.159s.01-.178.01-.267c0 .414-.039.2.006.058.031-.1.077-.229.1-.337-.07.35-.089.176-.01.037.058-.1.112-.209.174-.31s.13-.2.2-.3c-.3.391.087-.064.134-.11.087-.087.178-.168.269-.252.07-.068.322-.223-.006-.006.207-.137.41-.277.629-.395.081-.045.17-.079.248-.128.273-.167-.314.095-.012 0 .254-.077.5-.168.757-.228.174-.042.761-.1.265-.068.229-.017.455-.039.684-.043s.455.015.685.023c.4.016.011-.008-.068-.019.17.025.339.054.507.091.225.048.447.1.666.172.11.035.219.07.327.109s.575.271.118.037a12.8 12.8 0 0 1 1.344.768c.329.223.029.023-.031-.029.13.112.261.221.389.339.167.155.327.319.478.49.076.085.147.174.221.261-.333-.385.013.035.064.112a6.907 6.907 0 0 1 .426.745 2.194 2.194 0 0 0 2.982.782 2.23 2.23 0 0 0 .78-2.98z" transform="translate(21.149 34.18)"/>
            <path id="Path_174" d="M988.468 618.841c-.052 9.629-9.117 15.313-17.055 18.521-4.217 1.7-8.581 3.23-12.1 6.219-3.263 2.773-5.555 6.92-5.216 11.282.215 2.776 4.573 2.8 4.356 0-.767-9.89 12.947-12.351 19.578-15.745 7.812-4 14.74-10.982 14.79-20.277.015-2.8-4.341-2.807-4.356 0z" transform="translate(0 33.741)"/>
            <path id="Path_175" d="M1017.014 627.38q-5.73 6.241-11.646 12.31-1.44 1.472-2.891 2.937a12.986 12.986 0 0 0-1.293 1.3l-.647.648q1.862.038.955-.6c-.261-.79-1.826-1.959-2.362-2.614-.8-.98-1.584-1.979-2.418-2.933a2.18 2.18 0 0 0-2.639-.341 81.085 81.085 0 0 0-8.866 7.164h3.08l-18.421-15.716-.441 3.421 9.173-6.076h-2.2c3.2 1.8 5.745 5.288 8.494 7.714a113.443 113.443 0 0 0 9.179 7.255 2.172 2.172 0 0 0 2.639-.341 117.076 117.076 0 0 1 14.8-15.545l-2.118.56c3.133.521 5.752 2.2 8.461 3.752a33.046 33.046 0 0 0 9.1 3.584c3.286.778 6.583 1.76 9.036 4.217 2.757 2.759 3.386 6.7 3.251 10.44-.1 2.8 4.254 2.8 4.356 0 .205-5.648-1.431-11.272-6.052-14.833-4.9-3.777-11.226-3.683-16.51-6.612a60.347 60.347 0 0 0-7.419-3.905c-2.563-.989-4.041-1.3-6.149.567a114.958 114.958 0 0 0-13.836 14.7l2.641-.341a102.647 102.647 0 0 1-9.625-7.766c-2.614-2.385-4.935-5.454-8.049-7.2a2.171 2.171 0 0 0-2.2 0l-9.172 6.076a2.2 2.2 0 0 0-.441 3.421l18.421 15.716a2.227 2.227 0 0 0 3.08 0 73.173 73.173 0 0 1 7.985-6.482l-2.641-.341c1.872 2.143 3.541 5.077 6.023 6.577 2.4 1.452 3.944-.409 5.58-2.056q7.583-7.638 14.86-15.572c1.9-2.062-1.177-5.15-3.081-3.08z" transform="translate(11.306 39.021)"/>
        </g>
    </g>
</svg>
